<mxfile host="Electron" modified="2025-06-04T00:38:53.532Z" agent="Mozilla/5.0 (Windows NT 10.0; Win64; x64) AppleWebKit/537.36 (KHTML, like Gecko) draw.io/24.2.5 Chrome/120.0.6099.109 Electron/28.1.0 Safari/537.36" etag="pPONTC3wAopZBeRWefR6" version="24.2.5" type="device" pages="2">
  <diagram name="Page-1" id="36l8UOIS2_gwgcRG7ifT">
    <mxGraphModel dx="3354" dy="1364" grid="1" gridSize="10" guides="1" tooltips="1" connect="1" arrows="1" fold="1" page="1" pageScale="1" pageWidth="850" pageHeight="1100" math="0" shadow="0">
      <root>
        <mxCell id="0" />
        <mxCell id="1" parent="0" />
        <mxCell id="WgcDXFxmqLb7g-pY7TiZ-1" value="Dough" style="edgeStyle=orthogonalEdgeStyle;rounded=0;orthogonalLoop=1;jettySize=auto;html=1;exitX=1;exitY=0.5;exitDx=0;exitDy=0;entryX=0;entryY=0.75;entryDx=0;entryDy=0;" parent="1" source="WgcDXFxmqLb7g-pY7TiZ-2" target="WgcDXFxmqLb7g-pY7TiZ-4" edge="1">
          <mxGeometry relative="1" as="geometry" />
        </mxCell>
        <mxCell id="WgcDXFxmqLb7g-pY7TiZ-2" value="Import Dough" style="rounded=0;whiteSpace=wrap;html=1;" parent="1" vertex="1">
          <mxGeometry x="10" y="400" width="120" height="60" as="geometry" />
        </mxCell>
        <mxCell id="WgcDXFxmqLb7g-pY7TiZ-3" value="Bread" style="edgeStyle=orthogonalEdgeStyle;rounded=0;orthogonalLoop=1;jettySize=auto;html=1;exitX=1;exitY=0.5;exitDx=0;exitDy=0;" parent="1" source="WgcDXFxmqLb7g-pY7TiZ-4" target="WgcDXFxmqLb7g-pY7TiZ-7" edge="1">
          <mxGeometry relative="1" as="geometry" />
        </mxCell>
        <mxCell id="WgcDXFxmqLb7g-pY7TiZ-4" value="Bake Bread from Dough" style="rounded=0;whiteSpace=wrap;html=1;" parent="1" vertex="1">
          <mxGeometry x="210" y="350" width="120" height="60" as="geometry" />
        </mxCell>
        <mxCell id="WgcDXFxmqLb7g-pY7TiZ-5" value="EE" style="edgeStyle=orthogonalEdgeStyle;rounded=0;orthogonalLoop=1;jettySize=auto;html=1;exitX=1;exitY=0.5;exitDx=0;exitDy=0;entryX=0;entryY=0.25;entryDx=0;entryDy=0;" parent="1" source="WgcDXFxmqLb7g-pY7TiZ-6" target="WgcDXFxmqLb7g-pY7TiZ-4" edge="1">
          <mxGeometry relative="1" as="geometry" />
        </mxCell>
        <mxCell id="WgcDXFxmqLb7g-pY7TiZ-6" value="Import EE" style="rounded=0;whiteSpace=wrap;html=1;" parent="1" vertex="1">
          <mxGeometry x="10" y="300" width="120" height="60" as="geometry" />
        </mxCell>
        <mxCell id="WgcDXFxmqLb7g-pY7TiZ-7" value="Export Bread" style="rounded=0;whiteSpace=wrap;html=1;" parent="1" vertex="1">
          <mxGeometry x="410" y="350" width="120" height="60" as="geometry" />
        </mxCell>
        <mxCell id="WgcDXFxmqLb7g-pY7TiZ-8" value="&lt;b&gt;Problem:&lt;/b&gt; Is this one continuous process? At any given point in time, is there dough waiting to be made into bread? Or is it the same dough, later?" style="rounded=0;whiteSpace=wrap;html=1;" parent="1" vertex="1">
          <mxGeometry x="280" y="270" width="240" height="60" as="geometry" />
        </mxCell>
        <mxCell id="WgcDXFxmqLb7g-pY7TiZ-9" value="&lt;b&gt;Implied failure propagation: &lt;/b&gt;If we can&#39;t bake bread, we can&#39;t export bread" style="rounded=0;whiteSpace=wrap;html=1;" parent="1" vertex="1">
          <mxGeometry x="260" y="430" width="240" height="50" as="geometry" />
        </mxCell>
        <mxCell id="WgcDXFxmqLb7g-pY7TiZ-10" value="" style="endArrow=none;dashed=1;html=1;dashPattern=1 3;strokeWidth=2;rounded=0;" parent="1" edge="1">
          <mxGeometry width="50" height="50" relative="1" as="geometry">
            <mxPoint x="600" y="1100" as="sourcePoint" />
            <mxPoint x="600" y="165" as="targetPoint" />
          </mxGeometry>
        </mxCell>
        <mxCell id="WgcDXFxmqLb7g-pY7TiZ-11" value="&lt;b&gt;Typical EMS Model&lt;/b&gt;" style="text;html=1;strokeColor=none;fillColor=none;align=center;verticalAlign=middle;whiteSpace=wrap;rounded=0;" parent="1" vertex="1">
          <mxGeometry x="210" y="170" width="140" height="30" as="geometry" />
        </mxCell>
        <mxCell id="WgcDXFxmqLb7g-pY7TiZ-12" value="Export Bread&lt;div&gt;&amp;lt;Human&amp;gt;&lt;/div&gt;" style="rounded=0;whiteSpace=wrap;html=1;" parent="1" vertex="1">
          <mxGeometry x="1060" y="410" width="120" height="60" as="geometry" />
        </mxCell>
        <mxCell id="WgcDXFxmqLb7g-pY7TiZ-13" value="supplies" style="edgeStyle=orthogonalEdgeStyle;rounded=0;orthogonalLoop=1;jettySize=auto;html=1;exitX=0.5;exitY=0;exitDx=0;exitDy=0;entryX=0;entryY=0.5;entryDx=0;entryDy=0;endArrow=none;endFill=0;startArrow=diamondThin;startFill=0;" parent="1" source="WgcDXFxmqLb7g-pY7TiZ-14" target="WgcDXFxmqLb7g-pY7TiZ-20" edge="1">
          <mxGeometry relative="1" as="geometry">
            <mxPoint as="offset" />
          </mxGeometry>
        </mxCell>
        <mxCell id="WgcDXFxmqLb7g-pY7TiZ-14" value="Import EE&lt;div&gt;&amp;lt;Physical&amp;gt;&lt;/div&gt;" style="rounded=0;whiteSpace=wrap;html=1;" parent="1" vertex="1">
          <mxGeometry x="660" y="360" width="120" height="60" as="geometry" />
        </mxCell>
        <mxCell id="WgcDXFxmqLb7g-pY7TiZ-15" value="sources" style="edgeStyle=orthogonalEdgeStyle;rounded=0;orthogonalLoop=1;jettySize=auto;html=1;exitX=0.5;exitY=1;exitDx=0;exitDy=0;endArrow=none;endFill=0;startArrow=diamondThin;startFill=0;" parent="1" source="WgcDXFxmqLb7g-pY7TiZ-16" target="WgcDXFxmqLb7g-pY7TiZ-21" edge="1">
          <mxGeometry relative="1" as="geometry" />
        </mxCell>
        <mxCell id="WgcDXFxmqLb7g-pY7TiZ-16" value="Import Dough&lt;div&gt;&amp;lt;Human&amp;gt;&lt;/div&gt;" style="rounded=0;whiteSpace=wrap;html=1;" parent="1" vertex="1">
          <mxGeometry x="660" y="470" width="120" height="60" as="geometry" />
        </mxCell>
        <mxCell id="WgcDXFxmqLb7g-pY7TiZ-17" value="uses" style="edgeStyle=orthogonalEdgeStyle;rounded=0;orthogonalLoop=1;jettySize=auto;html=1;exitX=0.5;exitY=0;exitDx=0;exitDy=0;entryX=1;entryY=0.5;entryDx=0;entryDy=0;endArrow=none;endFill=0;startArrow=diamondThin;startFill=0;" parent="1" source="WgcDXFxmqLb7g-pY7TiZ-19" target="WgcDXFxmqLb7g-pY7TiZ-20" edge="1">
          <mxGeometry relative="1" as="geometry" />
        </mxCell>
        <mxCell id="WgcDXFxmqLb7g-pY7TiZ-18" value="transforms" style="edgeStyle=orthogonalEdgeStyle;rounded=0;orthogonalLoop=1;jettySize=auto;html=1;exitX=0.5;exitY=1;exitDx=0;exitDy=0;endArrow=none;endFill=0;startArrow=diamondThin;startFill=0;" parent="1" source="WgcDXFxmqLb7g-pY7TiZ-19" target="WgcDXFxmqLb7g-pY7TiZ-21" edge="1">
          <mxGeometry x="0.0087" relative="1" as="geometry">
            <mxPoint as="offset" />
          </mxGeometry>
        </mxCell>
        <mxCell id="WgcDXFxmqLb7g-pY7TiZ-19" value="Bake Bread from Dough&lt;div&gt;&amp;lt;Physical, Control&amp;gt;&lt;/div&gt;" style="rounded=0;whiteSpace=wrap;html=1;" parent="1" vertex="1">
          <mxGeometry x="860" y="400" width="120" height="80" as="geometry" />
        </mxCell>
        <mxCell id="WgcDXFxmqLb7g-pY7TiZ-20" value="EE_1&lt;div&gt;&amp;lt;Power&amp;gt;&lt;/div&gt;" style="ellipse;whiteSpace=wrap;html=1;aspect=fixed;" parent="1" vertex="1">
          <mxGeometry x="790" y="260" width="80" height="80" as="geometry" />
        </mxCell>
        <mxCell id="WgcDXFxmqLb7g-pY7TiZ-21" value="&lt;font style=&quot;font-size: 11px;&quot;&gt;Loaf&lt;br&gt;&amp;lt;Dough, Bread&amp;gt;&lt;/font&gt;" style="ellipse;whiteSpace=wrap;html=1;aspect=fixed;" parent="1" vertex="1">
          <mxGeometry x="880" y="520" width="80" height="80" as="geometry" />
        </mxCell>
        <mxCell id="WgcDXFxmqLb7g-pY7TiZ-22" value="outputs" style="edgeStyle=orthogonalEdgeStyle;rounded=0;orthogonalLoop=1;jettySize=auto;html=1;exitX=0.5;exitY=1;exitDx=0;exitDy=0;entryX=1;entryY=0.5;entryDx=0;entryDy=0;endArrow=none;endFill=0;startArrow=diamondThin;startFill=0;" parent="1" source="WgcDXFxmqLb7g-pY7TiZ-12" target="WgcDXFxmqLb7g-pY7TiZ-21" edge="1">
          <mxGeometry relative="1" as="geometry" />
        </mxCell>
        <mxCell id="WgcDXFxmqLb7g-pY7TiZ-23" value="Dough&lt;br&gt;ready" style="rounded=0;orthogonalLoop=1;jettySize=auto;html=1;exitX=1;exitY=0.5;exitDx=0;exitDy=0;dashed=1;endArrow=open;endFill=0;startArrow=none;startFill=0;entryX=0;entryY=0.75;entryDx=0;entryDy=0;" parent="1" source="WgcDXFxmqLb7g-pY7TiZ-16" target="WgcDXFxmqLb7g-pY7TiZ-19" edge="1">
          <mxGeometry x="0.0174" y="-2" relative="1" as="geometry">
            <mxPoint x="820" y="520" as="sourcePoint" />
            <mxPoint x="900" y="520" as="targetPoint" />
            <mxPoint as="offset" />
            <Array as="points" />
          </mxGeometry>
        </mxCell>
        <mxCell id="WgcDXFxmqLb7g-pY7TiZ-24" value="Loaf is&lt;br&gt;Bread" style="rounded=0;orthogonalLoop=1;jettySize=auto;html=1;exitX=1;exitY=0.5;exitDx=0;exitDy=0;dashed=1;endArrow=open;endFill=0;startArrow=none;startFill=0;entryX=0;entryY=0.5;entryDx=0;entryDy=0;" parent="1" source="WgcDXFxmqLb7g-pY7TiZ-19" target="WgcDXFxmqLb7g-pY7TiZ-12" edge="1">
          <mxGeometry x="0.0174" y="-2" relative="1" as="geometry">
            <mxPoint x="1005" y="340" as="sourcePoint" />
            <mxPoint x="1085" y="295" as="targetPoint" />
            <mxPoint as="offset" />
            <Array as="points" />
          </mxGeometry>
        </mxCell>
        <mxCell id="WgcDXFxmqLb7g-pY7TiZ-25" value="new voltage" style="rounded=0;orthogonalLoop=1;jettySize=auto;html=1;exitX=1;exitY=0.25;exitDx=0;exitDy=0;dashed=1;endArrow=open;endFill=0;startArrow=none;startFill=0;entryX=0;entryY=0.25;entryDx=0;entryDy=0;" parent="1" source="WgcDXFxmqLb7g-pY7TiZ-14" target="WgcDXFxmqLb7g-pY7TiZ-19" edge="1">
          <mxGeometry x="0.1798" y="5" relative="1" as="geometry">
            <mxPoint x="950" y="160" as="sourcePoint" />
            <mxPoint x="1071" y="221" as="targetPoint" />
            <mxPoint as="offset" />
          </mxGeometry>
        </mxCell>
        <mxCell id="WgcDXFxmqLb7g-pY7TiZ-26" style="rounded=0;orthogonalLoop=1;jettySize=auto;html=1;exitX=0;exitY=0.5;exitDx=0;exitDy=0;entryX=1.017;entryY=0.633;entryDx=0;entryDy=0;endArrow=open;endFill=0;dashed=1;entryPerimeter=0;startArrow=none;startFill=0;" parent="1" source="WgcDXFxmqLb7g-pY7TiZ-19" target="WgcDXFxmqLb7g-pY7TiZ-14" edge="1">
          <mxGeometry relative="1" as="geometry">
            <mxPoint x="1070" y="240" as="sourcePoint" />
            <mxPoint x="920" y="160" as="targetPoint" />
          </mxGeometry>
        </mxCell>
        <mxCell id="WgcDXFxmqLb7g-pY7TiZ-27" value="new&lt;br&gt;current" style="edgeLabel;html=1;align=center;verticalAlign=middle;resizable=0;points=[];" parent="WgcDXFxmqLb7g-pY7TiZ-26" vertex="1" connectable="0">
          <mxGeometry x="-0.1525" y="2" relative="1" as="geometry">
            <mxPoint x="-16" y="6" as="offset" />
          </mxGeometry>
        </mxCell>
        <mxCell id="WgcDXFxmqLb7g-pY7TiZ-28" value="&lt;b&gt;Discrete Process: &lt;/b&gt;Single loaf of bread is made from single lump of dough" style="rounded=0;whiteSpace=wrap;html=1;" parent="1" vertex="1">
          <mxGeometry x="950" y="272.5" width="220" height="50" as="geometry" />
        </mxCell>
        <mxCell id="WgcDXFxmqLb7g-pY7TiZ-29" value="&lt;b&gt;Implied failure propagation: &lt;/b&gt;If we can&#39;t bake bread, we can&#39;t export bread (and we may draw too much EE)" style="rounded=0;whiteSpace=wrap;html=1;" parent="1" vertex="1">
          <mxGeometry x="932.5" y="345" width="237.5" height="50" as="geometry" />
        </mxCell>
        <mxCell id="WgcDXFxmqLb7g-pY7TiZ-30" value="&lt;b&gt;ED&lt;/b&gt;" style="rounded=0;whiteSpace=wrap;html=1;" parent="1" vertex="1">
          <mxGeometry x="760" y="400" width="20" height="20" as="geometry" />
        </mxCell>
        <mxCell id="WgcDXFxmqLb7g-pY7TiZ-31" value="&lt;b&gt;IR&lt;/b&gt;" style="rounded=0;whiteSpace=wrap;html=1;" parent="1" vertex="1">
          <mxGeometry x="960" y="460" width="20" height="20" as="geometry" />
        </mxCell>
        <mxCell id="WgcDXFxmqLb7g-pY7TiZ-32" value="&lt;b&gt;EV&lt;/b&gt;" style="rounded=0;whiteSpace=wrap;html=1;" parent="1" vertex="1">
          <mxGeometry x="760" y="510" width="20" height="20" as="geometry" />
        </mxCell>
        <mxCell id="WgcDXFxmqLb7g-pY7TiZ-33" value="&lt;b&gt;EV&lt;/b&gt;" style="rounded=0;whiteSpace=wrap;html=1;" parent="1" vertex="1">
          <mxGeometry x="1160" y="450" width="20" height="20" as="geometry" />
        </mxCell>
        <mxCell id="WgcDXFxmqLb7g-pY7TiZ-34" value="" style="group" parent="1" vertex="1" connectable="0">
          <mxGeometry x="660" y="470" width="40" height="20" as="geometry" />
        </mxCell>
        <mxCell id="WgcDXFxmqLb7g-pY7TiZ-35" value="s:1:o" style="shape=offPageConnector;whiteSpace=wrap;html=1;" parent="WgcDXFxmqLb7g-pY7TiZ-34" vertex="1">
          <mxGeometry width="40" height="20" as="geometry" />
        </mxCell>
        <mxCell id="WgcDXFxmqLb7g-pY7TiZ-36" style="edgeStyle=orthogonalEdgeStyle;rounded=0;orthogonalLoop=1;jettySize=auto;html=1;exitX=0;exitY=0;exitDx=0;exitDy=0;entryX=0.75;entryY=0;entryDx=0;entryDy=0;startArrow=baseDash;startFill=0;" parent="WgcDXFxmqLb7g-pY7TiZ-34" edge="1">
          <mxGeometry relative="1" as="geometry">
            <mxPoint x="22.5" as="targetPoint" />
            <Array as="points" />
            <mxPoint as="sourcePoint" />
          </mxGeometry>
        </mxCell>
        <mxCell id="WgcDXFxmqLb7g-pY7TiZ-37" value="i::e" style="shape=offPageConnector;whiteSpace=wrap;html=1;" parent="1" vertex="1">
          <mxGeometry x="1060" y="410" width="30" height="20" as="geometry" />
        </mxCell>
        <mxCell id="WgcDXFxmqLb7g-pY7TiZ-38" style="edgeStyle=orthogonalEdgeStyle;rounded=0;orthogonalLoop=1;jettySize=auto;html=1;exitX=0;exitY=0;exitDx=0;exitDy=0;entryX=1;entryY=0;entryDx=0;entryDy=0;endArrow=ERoneToMany;endFill=0;" parent="1" target="WgcDXFxmqLb7g-pY7TiZ-37" edge="1">
          <mxGeometry relative="1" as="geometry">
            <mxPoint x="1085" y="410" as="targetPoint" />
            <Array as="points" />
            <mxPoint x="1070" y="410" as="sourcePoint" />
          </mxGeometry>
        </mxCell>
        <mxCell id="WgcDXFxmqLb7g-pY7TiZ-39" value="&lt;b&gt;C&lt;/b&gt;" style="shape=offPageConnector;whiteSpace=wrap;html=1;direction=north;size=0.25;" parent="1" vertex="1">
          <mxGeometry x="860" y="460" width="30" height="20" as="geometry" />
        </mxCell>
        <mxCell id="WgcDXFxmqLb7g-pY7TiZ-40" value="&lt;b&gt;A&lt;/b&gt;" style="shape=offPageConnector;whiteSpace=wrap;html=1;direction=north;size=0.25;" parent="1" vertex="1">
          <mxGeometry x="660" y="510" width="30" height="20" as="geometry" />
        </mxCell>
        <mxCell id="WgcDXFxmqLb7g-pY7TiZ-41" value="&lt;b&gt;A&lt;/b&gt;" style="shape=offPageConnector;whiteSpace=wrap;html=1;direction=north;size=0.25;" parent="1" vertex="1">
          <mxGeometry x="1060" y="450" width="30" height="20" as="geometry" />
        </mxCell>
        <mxCell id="WgcDXFxmqLb7g-pY7TiZ-42" value="&lt;b&gt;FRDL Model: Discrete Behavior&lt;/b&gt;" style="text;html=1;strokeColor=none;fillColor=none;align=center;verticalAlign=middle;whiteSpace=wrap;rounded=0;" parent="1" vertex="1">
          <mxGeometry x="810" y="170" width="190" height="30" as="geometry" />
        </mxCell>
        <mxCell id="WgcDXFxmqLb7g-pY7TiZ-43" value="" style="endArrow=none;dashed=1;html=1;dashPattern=1 3;strokeWidth=2;rounded=0;" parent="1" edge="1">
          <mxGeometry width="50" height="50" relative="1" as="geometry">
            <mxPoint x="1240" y="1100" as="sourcePoint" />
            <mxPoint x="1240" y="160" as="targetPoint" />
          </mxGeometry>
        </mxCell>
        <mxCell id="WgcDXFxmqLb7g-pY7TiZ-44" value="supplies" style="edgeStyle=orthogonalEdgeStyle;rounded=0;orthogonalLoop=1;jettySize=auto;html=1;exitX=0.5;exitY=0;exitDx=0;exitDy=0;entryX=0;entryY=0.5;entryDx=0;entryDy=0;startArrow=diamondThin;startFill=0;endArrow=none;endFill=0;" parent="1" source="WgcDXFxmqLb7g-pY7TiZ-45" target="WgcDXFxmqLb7g-pY7TiZ-51" edge="1">
          <mxGeometry relative="1" as="geometry">
            <mxPoint as="offset" />
          </mxGeometry>
        </mxCell>
        <mxCell id="WgcDXFxmqLb7g-pY7TiZ-45" value="Import EE&lt;div&gt;&amp;lt;Physical&amp;gt;&lt;/div&gt;" style="rounded=0;whiteSpace=wrap;html=1;" parent="1" vertex="1">
          <mxGeometry x="1300" y="360" width="120" height="60" as="geometry" />
        </mxCell>
        <mxCell id="WgcDXFxmqLb7g-pY7TiZ-46" value="produces" style="edgeStyle=orthogonalEdgeStyle;rounded=0;orthogonalLoop=1;jettySize=auto;html=1;exitX=0.5;exitY=1;exitDx=0;exitDy=0;endArrow=none;endFill=0;startArrow=diamondThin;startFill=0;" parent="1" source="WgcDXFxmqLb7g-pY7TiZ-47" target="WgcDXFxmqLb7g-pY7TiZ-52" edge="1">
          <mxGeometry x="0.1667" y="-5" relative="1" as="geometry">
            <mxPoint as="offset" />
          </mxGeometry>
        </mxCell>
        <mxCell id="WgcDXFxmqLb7g-pY7TiZ-47" value="Import Dough&lt;div&gt;&amp;lt;Human&amp;gt;&lt;/div&gt;" style="rounded=0;whiteSpace=wrap;html=1;" parent="1" vertex="1">
          <mxGeometry x="1300" y="470" width="120" height="60" as="geometry" />
        </mxCell>
        <mxCell id="WgcDXFxmqLb7g-pY7TiZ-48" value="uses" style="edgeStyle=orthogonalEdgeStyle;rounded=0;orthogonalLoop=1;jettySize=auto;html=1;exitX=0.5;exitY=0;exitDx=0;exitDy=0;entryX=1;entryY=0.5;entryDx=0;entryDy=0;endArrow=none;endFill=0;startArrow=diamondThin;startFill=0;" parent="1" source="WgcDXFxmqLb7g-pY7TiZ-50" target="WgcDXFxmqLb7g-pY7TiZ-51" edge="1">
          <mxGeometry relative="1" as="geometry">
            <mxPoint as="offset" />
          </mxGeometry>
        </mxCell>
        <mxCell id="WgcDXFxmqLb7g-pY7TiZ-49" value="uses" style="edgeStyle=orthogonalEdgeStyle;rounded=0;orthogonalLoop=1;jettySize=auto;html=1;exitX=0.25;exitY=1;exitDx=0;exitDy=0;startArrow=diamondThin;startFill=0;endArrow=none;endFill=0;" parent="1" source="WgcDXFxmqLb7g-pY7TiZ-50" target="WgcDXFxmqLb7g-pY7TiZ-52" edge="1">
          <mxGeometry relative="1" as="geometry">
            <mxPoint as="offset" />
          </mxGeometry>
        </mxCell>
        <mxCell id="WgcDXFxmqLb7g-pY7TiZ-50" value="Bake Bread from Dough&lt;div&gt;&amp;lt;Physical, Control&amp;gt;&lt;/div&gt;" style="rounded=0;whiteSpace=wrap;html=1;" parent="1" vertex="1">
          <mxGeometry x="1500" y="400" width="120" height="80" as="geometry" />
        </mxCell>
        <mxCell id="WgcDXFxmqLb7g-pY7TiZ-51" value="EE_1&lt;div&gt;&amp;lt;Power&amp;gt;&lt;/div&gt;" style="ellipse;whiteSpace=wrap;html=1;aspect=fixed;" parent="1" vertex="1">
          <mxGeometry x="1430" y="260" width="80" height="80" as="geometry" />
        </mxCell>
        <mxCell id="WgcDXFxmqLb7g-pY7TiZ-52" value="Dough Input&lt;div&gt;&amp;lt;Dough&amp;gt;&lt;/div&gt;" style="ellipse;whiteSpace=wrap;html=1;aspect=fixed;" parent="1" vertex="1">
          <mxGeometry x="1450" y="520" width="80" height="80" as="geometry" />
        </mxCell>
        <mxCell id="WgcDXFxmqLb7g-pY7TiZ-53" value="Dough&lt;br&gt;put in" style="rounded=0;orthogonalLoop=1;jettySize=auto;html=1;exitX=1;exitY=0.25;exitDx=0;exitDy=0;dashed=1;endArrow=open;endFill=0;startArrow=none;startFill=0;entryX=0;entryY=0.577;entryDx=0;entryDy=0;entryPerimeter=0;" parent="1" source="WgcDXFxmqLb7g-pY7TiZ-47" target="WgcDXFxmqLb7g-pY7TiZ-50" edge="1">
          <mxGeometry x="0.0144" y="-2" relative="1" as="geometry">
            <mxPoint x="1460" y="520" as="sourcePoint" />
            <mxPoint x="1540" y="520" as="targetPoint" />
            <mxPoint as="offset" />
            <Array as="points" />
          </mxGeometry>
        </mxCell>
        <mxCell id="WgcDXFxmqLb7g-pY7TiZ-54" value="Bread ready" style="rounded=0;orthogonalLoop=1;jettySize=auto;html=1;exitX=1.013;exitY=0.308;exitDx=0;exitDy=0;dashed=1;endArrow=open;endFill=0;startArrow=none;startFill=0;entryX=0;entryY=0.25;entryDx=0;entryDy=0;exitPerimeter=0;" parent="1" source="WgcDXFxmqLb7g-pY7TiZ-50" target="WgcDXFxmqLb7g-pY7TiZ-60" edge="1">
          <mxGeometry x="0.0174" y="-2" relative="1" as="geometry">
            <mxPoint x="1645" y="340" as="sourcePoint" />
            <mxPoint x="1730" y="440" as="targetPoint" />
            <mxPoint as="offset" />
            <Array as="points" />
          </mxGeometry>
        </mxCell>
        <mxCell id="WgcDXFxmqLb7g-pY7TiZ-55" value="new voltage" style="rounded=0;orthogonalLoop=1;jettySize=auto;html=1;exitX=1;exitY=0.25;exitDx=0;exitDy=0;dashed=1;endArrow=open;endFill=0;startArrow=none;startFill=0;entryX=0;entryY=0.25;entryDx=0;entryDy=0;" parent="1" source="WgcDXFxmqLb7g-pY7TiZ-45" target="WgcDXFxmqLb7g-pY7TiZ-50" edge="1">
          <mxGeometry x="-0.1124" y="8" relative="1" as="geometry">
            <mxPoint x="1590" y="160" as="sourcePoint" />
            <mxPoint x="1711" y="221" as="targetPoint" />
            <mxPoint y="-1" as="offset" />
          </mxGeometry>
        </mxCell>
        <mxCell id="WgcDXFxmqLb7g-pY7TiZ-56" style="rounded=0;orthogonalLoop=1;jettySize=auto;html=1;exitX=0;exitY=0.5;exitDx=0;exitDy=0;entryX=1.017;entryY=0.633;entryDx=0;entryDy=0;endArrow=open;endFill=0;dashed=1;entryPerimeter=0;" parent="1" source="WgcDXFxmqLb7g-pY7TiZ-50" target="WgcDXFxmqLb7g-pY7TiZ-45" edge="1">
          <mxGeometry relative="1" as="geometry">
            <mxPoint x="1710" y="240" as="sourcePoint" />
            <mxPoint x="1560" y="160" as="targetPoint" />
          </mxGeometry>
        </mxCell>
        <mxCell id="WgcDXFxmqLb7g-pY7TiZ-57" value="new&lt;br&gt;current" style="edgeLabel;html=1;align=center;verticalAlign=middle;resizable=0;points=[];" parent="WgcDXFxmqLb7g-pY7TiZ-56" vertex="1" connectable="0">
          <mxGeometry x="-0.1525" y="2" relative="1" as="geometry">
            <mxPoint x="-16" y="1" as="offset" />
          </mxGeometry>
        </mxCell>
        <mxCell id="WgcDXFxmqLb7g-pY7TiZ-58" value="Bread Output&lt;div&gt;&amp;lt;Bread&amp;gt;&lt;/div&gt;" style="ellipse;whiteSpace=wrap;html=1;aspect=fixed;" parent="1" vertex="1">
          <mxGeometry x="1600" y="520" width="80" height="80" as="geometry" />
        </mxCell>
        <mxCell id="WgcDXFxmqLb7g-pY7TiZ-59" value="produces" style="edgeStyle=orthogonalEdgeStyle;rounded=0;orthogonalLoop=1;jettySize=auto;html=1;exitX=0.75;exitY=1;exitDx=0;exitDy=0;endArrow=none;endFill=0;startArrow=diamondThin;startFill=0;" parent="1" source="WgcDXFxmqLb7g-pY7TiZ-50" edge="1">
          <mxGeometry x="0.0005" relative="1" as="geometry">
            <mxPoint x="1640" y="520" as="targetPoint" />
            <mxPoint as="offset" />
          </mxGeometry>
        </mxCell>
        <mxCell id="WgcDXFxmqLb7g-pY7TiZ-60" value="Export Bread&lt;div&gt;&amp;lt;Human&amp;gt;&lt;/div&gt;" style="rounded=0;whiteSpace=wrap;html=1;" parent="1" vertex="1">
          <mxGeometry x="1710" y="410" width="120" height="60" as="geometry" />
        </mxCell>
        <mxCell id="WgcDXFxmqLb7g-pY7TiZ-61" value="uses" style="edgeStyle=orthogonalEdgeStyle;rounded=0;orthogonalLoop=1;jettySize=auto;html=1;exitX=0.5;exitY=1;exitDx=0;exitDy=0;entryX=1;entryY=0.5;entryDx=0;entryDy=0;endArrow=none;endFill=0;startArrow=diamondThin;startFill=0;" parent="1" source="WgcDXFxmqLb7g-pY7TiZ-60" target="WgcDXFxmqLb7g-pY7TiZ-58" edge="1">
          <mxGeometry relative="1" as="geometry">
            <mxPoint x="1940" y="560" as="sourcePoint" />
            <mxPoint x="1780" y="650" as="targetPoint" />
          </mxGeometry>
        </mxCell>
        <mxCell id="WgcDXFxmqLb7g-pY7TiZ-62" value="&lt;b&gt;EV&lt;/b&gt;" style="rounded=0;whiteSpace=wrap;html=1;" parent="1" vertex="1">
          <mxGeometry x="1390" y="510" width="30" height="20" as="geometry" />
        </mxCell>
        <mxCell id="WgcDXFxmqLb7g-pY7TiZ-63" value="&lt;b&gt;EV&lt;/b&gt;" style="rounded=0;whiteSpace=wrap;html=1;" parent="1" vertex="1">
          <mxGeometry x="1800" y="450" width="30" height="20" as="geometry" />
        </mxCell>
        <mxCell id="WgcDXFxmqLb7g-pY7TiZ-64" value="&lt;b&gt;ED&lt;/b&gt;" style="rounded=0;whiteSpace=wrap;html=1;" parent="1" vertex="1">
          <mxGeometry x="1400" y="400" width="20" height="20" as="geometry" />
        </mxCell>
        <mxCell id="WgcDXFxmqLb7g-pY7TiZ-65" value="&lt;b&gt;IR&lt;/b&gt;" style="rounded=0;whiteSpace=wrap;html=1;" parent="1" vertex="1">
          <mxGeometry x="1600" y="460" width="20" height="20" as="geometry" />
        </mxCell>
        <mxCell id="WgcDXFxmqLb7g-pY7TiZ-66" value="i::100" style="shape=offPageConnector;whiteSpace=wrap;html=1;" parent="1" vertex="1">
          <mxGeometry x="1710" y="410" width="40" height="20" as="geometry" />
        </mxCell>
        <mxCell id="WgcDXFxmqLb7g-pY7TiZ-67" style="edgeStyle=orthogonalEdgeStyle;rounded=0;orthogonalLoop=1;jettySize=auto;html=1;exitX=0;exitY=0;exitDx=0;exitDy=0;entryX=1;entryY=0;entryDx=0;entryDy=0;endArrow=ERoneToMany;endFill=0;" parent="1" target="WgcDXFxmqLb7g-pY7TiZ-66" edge="1">
          <mxGeometry relative="1" as="geometry">
            <mxPoint x="1745" y="410" as="targetPoint" />
            <Array as="points" />
            <mxPoint x="1730" y="410" as="sourcePoint" />
          </mxGeometry>
        </mxCell>
        <mxCell id="WgcDXFxmqLb7g-pY7TiZ-68" value="" style="group" parent="1" vertex="1" connectable="0">
          <mxGeometry x="1500" y="400" width="50" height="20" as="geometry" />
        </mxCell>
        <mxCell id="WgcDXFxmqLb7g-pY7TiZ-69" value="i:dt:e" style="shape=offPageConnector;whiteSpace=wrap;html=1;" parent="WgcDXFxmqLb7g-pY7TiZ-68" vertex="1">
          <mxGeometry width="30" height="20" as="geometry" />
        </mxCell>
        <mxCell id="WgcDXFxmqLb7g-pY7TiZ-71" value="&lt;b&gt;CA&lt;/b&gt;" style="shape=offPageConnector;whiteSpace=wrap;html=1;direction=north;size=0.25;" parent="1" vertex="1">
          <mxGeometry x="1500" y="460" width="30" height="20" as="geometry" />
        </mxCell>
        <mxCell id="WgcDXFxmqLb7g-pY7TiZ-72" value="" style="group" parent="1" vertex="1" connectable="0">
          <mxGeometry x="1300" y="470" width="40" height="20" as="geometry" />
        </mxCell>
        <mxCell id="WgcDXFxmqLb7g-pY7TiZ-73" value="0::e" style="shape=offPageConnector;whiteSpace=wrap;html=1;" parent="WgcDXFxmqLb7g-pY7TiZ-72" vertex="1">
          <mxGeometry width="20" height="20" as="geometry" />
        </mxCell>
        <mxCell id="WgcDXFxmqLb7g-pY7TiZ-74" style="edgeStyle=orthogonalEdgeStyle;rounded=0;orthogonalLoop=1;jettySize=auto;html=1;exitX=0;exitY=0;exitDx=0;exitDy=0;entryX=0.75;entryY=0;entryDx=0;entryDy=0;startArrow=baseDash;startFill=0;" parent="WgcDXFxmqLb7g-pY7TiZ-72" edge="1">
          <mxGeometry relative="1" as="geometry">
            <mxPoint x="22.5" as="targetPoint" />
            <Array as="points" />
            <mxPoint as="sourcePoint" />
          </mxGeometry>
        </mxCell>
        <mxCell id="WgcDXFxmqLb7g-pY7TiZ-75" value="&lt;b&gt;FRDL Model: Continuous Behavior&lt;/b&gt;" style="text;html=1;strokeColor=none;fillColor=none;align=center;verticalAlign=middle;whiteSpace=wrap;rounded=0;" parent="1" vertex="1">
          <mxGeometry x="1460" y="170" width="220" height="30" as="geometry" />
        </mxCell>
        <mxCell id="WgcDXFxmqLb7g-pY7TiZ-76" value="&lt;b&gt;Continuous Process: &lt;/b&gt;Loaves of bread are continuously made from lumps of dough as they pass through the function" style="rounded=0;whiteSpace=wrap;html=1;" parent="1" vertex="1">
          <mxGeometry x="1600" y="245" width="230" height="55" as="geometry" />
        </mxCell>
        <mxCell id="WgcDXFxmqLb7g-pY7TiZ-77" value="&lt;b&gt;Implied failure propagation: &lt;/b&gt;If we can&#39;t bake bread, we can&#39;t export bread, and we may end up with a lot of uncooked dough!" style="rounded=0;whiteSpace=wrap;html=1;" parent="1" vertex="1">
          <mxGeometry x="1600" y="320" width="260" height="50" as="geometry" />
        </mxCell>
        <mxCell id="WgcDXFxmqLb7g-pY7TiZ-78" value="Import EE&lt;div&gt;&amp;lt;Physical&amp;gt;&lt;/div&gt;" style="rounded=0;whiteSpace=wrap;html=1;" parent="1" vertex="1">
          <mxGeometry x="1330" y="780" width="120" height="60" as="geometry" />
        </mxCell>
        <mxCell id="WgcDXFxmqLb7g-pY7TiZ-79" value="Import Dough&lt;div&gt;&amp;lt;Human&amp;gt;&lt;/div&gt;" style="rounded=0;whiteSpace=wrap;html=1;" parent="1" vertex="1">
          <mxGeometry x="1330" y="890" width="120" height="60" as="geometry" />
        </mxCell>
        <mxCell id="WgcDXFxmqLb7g-pY7TiZ-80" value="Bake Bread from Dough&lt;div&gt;&amp;lt;Physical, Control&amp;gt;&lt;/div&gt;" style="rounded=0;whiteSpace=wrap;html=1;" parent="1" vertex="1">
          <mxGeometry x="1530" y="820" width="120" height="80" as="geometry" />
        </mxCell>
        <mxCell id="WgcDXFxmqLb7g-pY7TiZ-81" value="EE_1&lt;div&gt;&amp;lt;Power&amp;gt;&lt;/div&gt;" style="ellipse;whiteSpace=wrap;html=1;aspect=fixed;" parent="1" vertex="1">
          <mxGeometry x="1470" y="690" width="70" height="70" as="geometry" />
        </mxCell>
        <mxCell id="WgcDXFxmqLb7g-pY7TiZ-82" value="Dough Input&lt;div&gt;&amp;lt;Dough&amp;gt;&lt;/div&gt;" style="ellipse;whiteSpace=wrap;html=1;aspect=fixed;" parent="1" vertex="1">
          <mxGeometry x="1490" y="950" width="80" height="80" as="geometry" />
        </mxCell>
        <mxCell id="WgcDXFxmqLb7g-pY7TiZ-83" value="Bread Output&lt;div&gt;&amp;lt;Bread&amp;gt;&lt;/div&gt;" style="ellipse;whiteSpace=wrap;html=1;aspect=fixed;" parent="1" vertex="1">
          <mxGeometry x="1650" y="950" width="80" height="80" as="geometry" />
        </mxCell>
        <mxCell id="WgcDXFxmqLb7g-pY7TiZ-84" value="Export Bread&lt;div&gt;&amp;lt;Human&amp;gt;&lt;/div&gt;" style="rounded=0;whiteSpace=wrap;html=1;" parent="1" vertex="1">
          <mxGeometry x="1740" y="830" width="120" height="60" as="geometry" />
        </mxCell>
        <mxCell id="WgcDXFxmqLb7g-pY7TiZ-85" value="&lt;b&gt;EV&lt;/b&gt;" style="rounded=0;whiteSpace=wrap;html=1;" parent="1" vertex="1">
          <mxGeometry x="1420" y="930" width="30" height="20" as="geometry" />
        </mxCell>
        <mxCell id="WgcDXFxmqLb7g-pY7TiZ-86" value="&lt;b&gt;EV&lt;/b&gt;" style="rounded=0;whiteSpace=wrap;html=1;" parent="1" vertex="1">
          <mxGeometry x="1830" y="870" width="30" height="20" as="geometry" />
        </mxCell>
        <mxCell id="WgcDXFxmqLb7g-pY7TiZ-87" value="&lt;b&gt;ED&lt;/b&gt;" style="rounded=0;whiteSpace=wrap;html=1;" parent="1" vertex="1">
          <mxGeometry x="1430" y="820" width="20" height="20" as="geometry" />
        </mxCell>
        <mxCell id="WgcDXFxmqLb7g-pY7TiZ-88" value="&lt;b&gt;IR&lt;/b&gt;" style="rounded=0;whiteSpace=wrap;html=1;" parent="1" vertex="1">
          <mxGeometry x="1630" y="880" width="20" height="20" as="geometry" />
        </mxCell>
        <mxCell id="WgcDXFxmqLb7g-pY7TiZ-89" value="i::100" style="shape=offPageConnector;whiteSpace=wrap;html=1;" parent="1" vertex="1">
          <mxGeometry x="1740" y="830" width="40" height="20" as="geometry" />
        </mxCell>
        <mxCell id="WgcDXFxmqLb7g-pY7TiZ-90" style="edgeStyle=orthogonalEdgeStyle;rounded=0;orthogonalLoop=1;jettySize=auto;html=1;exitX=0;exitY=0;exitDx=0;exitDy=0;entryX=1;entryY=0;entryDx=0;entryDy=0;endArrow=ERoneToMany;endFill=0;" parent="1" target="WgcDXFxmqLb7g-pY7TiZ-89" edge="1">
          <mxGeometry relative="1" as="geometry">
            <mxPoint x="1775" y="830" as="targetPoint" />
            <Array as="points" />
            <mxPoint x="1760" y="830" as="sourcePoint" />
          </mxGeometry>
        </mxCell>
        <mxCell id="WgcDXFxmqLb7g-pY7TiZ-91" value="" style="group" parent="1" vertex="1" connectable="0">
          <mxGeometry x="1530" y="830" width="50" height="20" as="geometry" />
        </mxCell>
        <mxCell id="WgcDXFxmqLb7g-pY7TiZ-92" value="i:dt:e" style="shape=offPageConnector;whiteSpace=wrap;html=1;" parent="WgcDXFxmqLb7g-pY7TiZ-91" vertex="1">
          <mxGeometry y="-10" width="30" height="20" as="geometry" />
        </mxCell>
        <mxCell id="WgcDXFxmqLb7g-pY7TiZ-94" value="&lt;b&gt;CA&lt;/b&gt;" style="shape=offPageConnector;whiteSpace=wrap;html=1;direction=north;size=0.25;" parent="1" vertex="1">
          <mxGeometry x="1530" y="880" width="30" height="20" as="geometry" />
        </mxCell>
        <mxCell id="WgcDXFxmqLb7g-pY7TiZ-95" value="" style="group" parent="1" vertex="1" connectable="0">
          <mxGeometry x="1330" y="890" width="40" height="20" as="geometry" />
        </mxCell>
        <mxCell id="WgcDXFxmqLb7g-pY7TiZ-96" value="s::e" style="shape=offPageConnector;whiteSpace=wrap;html=1;" parent="WgcDXFxmqLb7g-pY7TiZ-95" vertex="1">
          <mxGeometry width="20" height="20" as="geometry" />
        </mxCell>
        <mxCell id="WgcDXFxmqLb7g-pY7TiZ-97" style="edgeStyle=orthogonalEdgeStyle;rounded=0;orthogonalLoop=1;jettySize=auto;html=1;exitX=0;exitY=0;exitDx=0;exitDy=0;entryX=0.75;entryY=0;entryDx=0;entryDy=0;startArrow=baseDash;startFill=0;" parent="WgcDXFxmqLb7g-pY7TiZ-95" edge="1">
          <mxGeometry relative="1" as="geometry">
            <mxPoint x="22.5" as="targetPoint" />
            <Array as="points" />
            <mxPoint as="sourcePoint" />
          </mxGeometry>
        </mxCell>
        <mxCell id="WgcDXFxmqLb7g-pY7TiZ-98" value="new voltage" style="edgeStyle=orthogonalEdgeStyle;rounded=0;orthogonalLoop=1;jettySize=auto;html=1;exitX=0.5;exitY=0;exitDx=0;exitDy=0;entryX=0;entryY=0.5;entryDx=0;entryDy=0;startArrow=none;startFill=0;" parent="1" source="WgcDXFxmqLb7g-pY7TiZ-78" target="WgcDXFxmqLb7g-pY7TiZ-81" edge="1">
          <mxGeometry x="-0.0667" relative="1" as="geometry">
            <mxPoint x="1310" y="607.5" as="sourcePoint" />
            <mxPoint x="1280" y="687.5" as="targetPoint" />
            <mxPoint as="offset" />
          </mxGeometry>
        </mxCell>
        <mxCell id="WgcDXFxmqLb7g-pY7TiZ-99" value="new current (r)" style="edgeStyle=orthogonalEdgeStyle;rounded=0;orthogonalLoop=1;jettySize=auto;html=1;exitX=0.5;exitY=0;exitDx=0;exitDy=0;startArrow=classic;startFill=1;entryX=1;entryY=0.5;entryDx=0;entryDy=0;endArrow=none;endFill=0;" parent="1" source="WgcDXFxmqLb7g-pY7TiZ-80" target="WgcDXFxmqLb7g-pY7TiZ-81" edge="1">
          <mxGeometry relative="1" as="geometry">
            <mxPoint x="1730" y="612.5" as="sourcePoint" />
            <mxPoint x="1660" y="742.5" as="targetPoint" />
          </mxGeometry>
        </mxCell>
        <mxCell id="WgcDXFxmqLb7g-pY7TiZ-100" value="dough put in" style="edgeStyle=orthogonalEdgeStyle;rounded=0;orthogonalLoop=1;jettySize=auto;html=1;exitX=0.5;exitY=1;exitDx=0;exitDy=0;entryX=0;entryY=0.5;entryDx=0;entryDy=0;startArrow=none;startFill=0;" parent="1" source="WgcDXFxmqLb7g-pY7TiZ-79" target="WgcDXFxmqLb7g-pY7TiZ-82" edge="1">
          <mxGeometry x="-0.1667" relative="1" as="geometry">
            <mxPoint x="1394.75" y="1090" as="sourcePoint" />
            <mxPoint x="1464.75" y="1030" as="targetPoint" />
            <mxPoint as="offset" />
          </mxGeometry>
        </mxCell>
        <mxCell id="WgcDXFxmqLb7g-pY7TiZ-101" value="&lt;span style=&quot;border: 0px; margin: 0px; padding: 0px; outline: 0px; vertical-align: baseline; background-image: initial; background-position: 0px 0px; background-size: initial; background-repeat: initial; background-attachment: initial; background-origin: initial; background-clip: initial; text-align: justify;&quot;&gt;ready for dough (r)&lt;/span&gt;" style="edgeStyle=orthogonalEdgeStyle;rounded=0;orthogonalLoop=1;jettySize=auto;html=1;exitX=0.5;exitY=0;exitDx=0;exitDy=0;entryX=0;entryY=1;entryDx=0;entryDy=0;startArrow=none;startFill=0;" parent="1" source="WgcDXFxmqLb7g-pY7TiZ-82" target="WgcDXFxmqLb7g-pY7TiZ-94" edge="1">
          <mxGeometry x="-0.1111" relative="1" as="geometry">
            <mxPoint x="1400" y="960" as="sourcePoint" />
            <mxPoint x="1490" y="990" as="targetPoint" />
            <mxPoint as="offset" />
          </mxGeometry>
        </mxCell>
        <mxCell id="WgcDXFxmqLb7g-pY7TiZ-102" value="&lt;span style=&quot;border: 0px; margin: 0px; padding: 0px; outline: 0px; vertical-align: baseline; background-image: initial; background-position: 0px 0px; background-size: initial; background-repeat: initial; background-attachment: initial; background-origin: initial; background-clip: initial; text-align: justify;&quot;&gt;bread ready&lt;br&gt;&lt;/span&gt;" style="edgeStyle=orthogonalEdgeStyle;rounded=0;orthogonalLoop=1;jettySize=auto;html=1;exitX=0.5;exitY=0;exitDx=0;exitDy=0;entryX=0.25;entryY=1;entryDx=0;entryDy=0;startArrow=classic;startFill=1;endArrow=none;endFill=0;" parent="1" source="WgcDXFxmqLb7g-pY7TiZ-83" target="WgcDXFxmqLb7g-pY7TiZ-88" edge="1">
          <mxGeometry x="0.1136" relative="1" as="geometry">
            <mxPoint x="1574.75" y="980" as="sourcePoint" />
            <mxPoint x="1604.75" y="920" as="targetPoint" />
            <mxPoint as="offset" />
          </mxGeometry>
        </mxCell>
        <mxCell id="WgcDXFxmqLb7g-pY7TiZ-103" value="&lt;span style=&quot;border: 0px; margin: 0px; padding: 0px; outline: 0px; vertical-align: baseline; background-image: initial; background-position: 0px 0px; background-size: initial; background-repeat: initial; background-attachment: initial; background-origin: initial; background-clip: initial; text-align: justify;&quot;&gt;bread&lt;br&gt;removed (r)&lt;br&gt;&lt;/span&gt;" style="edgeStyle=orthogonalEdgeStyle;rounded=0;orthogonalLoop=1;jettySize=auto;html=1;entryX=1;entryY=0.5;entryDx=0;entryDy=0;startArrow=classic;startFill=1;exitX=0.5;exitY=1;exitDx=0;exitDy=0;endArrow=none;endFill=0;" parent="1" source="WgcDXFxmqLb7g-pY7TiZ-84" target="WgcDXFxmqLb7g-pY7TiZ-83" edge="1">
          <mxGeometry x="0.1111" relative="1" as="geometry">
            <mxPoint x="1830" y="951" as="sourcePoint" />
            <mxPoint x="1630" y="900" as="targetPoint" />
            <mxPoint as="offset" />
          </mxGeometry>
        </mxCell>
        <mxCell id="WgcDXFxmqLb7g-pY7TiZ-104" value="&lt;b&gt;Propagation Arrow Variant&lt;/b&gt;" style="text;html=1;strokeColor=none;fillColor=none;align=center;verticalAlign=middle;whiteSpace=wrap;rounded=0;" parent="1" vertex="1">
          <mxGeometry x="1500" y="650" width="220" height="30" as="geometry" />
        </mxCell>
        <mxCell id="WgcDXFxmqLb7g-pY7TiZ-105" value="&lt;b&gt;Propagation Arrow Variant&lt;/b&gt;" style="text;html=1;strokeColor=none;fillColor=none;align=center;verticalAlign=middle;whiteSpace=wrap;rounded=0;" parent="1" vertex="1">
          <mxGeometry x="810" y="650" width="220" height="30" as="geometry" />
        </mxCell>
        <mxCell id="WgcDXFxmqLb7g-pY7TiZ-106" value="Export Bread&lt;div&gt;&amp;lt;Human&amp;gt;&lt;/div&gt;" style="rounded=0;whiteSpace=wrap;html=1;" parent="1" vertex="1">
          <mxGeometry x="1070" y="840" width="120" height="60" as="geometry" />
        </mxCell>
        <mxCell id="WgcDXFxmqLb7g-pY7TiZ-107" value="Import EE&lt;div&gt;&amp;lt;Physical&amp;gt;&lt;/div&gt;" style="rounded=0;whiteSpace=wrap;html=1;" parent="1" vertex="1">
          <mxGeometry x="670" y="790" width="120" height="60" as="geometry" />
        </mxCell>
        <mxCell id="WgcDXFxmqLb7g-pY7TiZ-108" style="edgeStyle=orthogonalEdgeStyle;rounded=0;orthogonalLoop=1;jettySize=auto;html=1;exitX=0.5;exitY=1;exitDx=0;exitDy=0;entryX=0;entryY=0.5;entryDx=0;entryDy=0;" parent="1" source="WgcDXFxmqLb7g-pY7TiZ-110" target="WgcDXFxmqLb7g-pY7TiZ-117" edge="1">
          <mxGeometry relative="1" as="geometry" />
        </mxCell>
        <mxCell id="WgcDXFxmqLb7g-pY7TiZ-109" value="dough ready" style="edgeLabel;html=1;align=center;verticalAlign=middle;resizable=0;points=[];" parent="WgcDXFxmqLb7g-pY7TiZ-108" vertex="1" connectable="0">
          <mxGeometry x="-0.2021" relative="1" as="geometry">
            <mxPoint as="offset" />
          </mxGeometry>
        </mxCell>
        <mxCell id="WgcDXFxmqLb7g-pY7TiZ-110" value="Import Dough&lt;div&gt;&amp;lt;Human&amp;gt;&lt;/div&gt;" style="rounded=0;whiteSpace=wrap;html=1;" parent="1" vertex="1">
          <mxGeometry x="670" y="900" width="120" height="60" as="geometry" />
        </mxCell>
        <mxCell id="WgcDXFxmqLb7g-pY7TiZ-111" style="edgeStyle=orthogonalEdgeStyle;rounded=0;orthogonalLoop=1;jettySize=auto;html=1;exitX=0.5;exitY=1;exitDx=0;exitDy=0;entryX=0.5;entryY=0;entryDx=0;entryDy=0;startArrow=classic;startFill=1;" parent="1" source="WgcDXFxmqLb7g-pY7TiZ-113" target="WgcDXFxmqLb7g-pY7TiZ-117" edge="1">
          <mxGeometry relative="1" as="geometry" />
        </mxCell>
        <mxCell id="WgcDXFxmqLb7g-pY7TiZ-112" value="[loaf is bread]&amp;gt;o&lt;br style=&quot;border-color: var(--border-color);&quot;&gt;(dough ready)&amp;gt;&lt;b style=&quot;border: 0px; margin: 0px; padding: 0px; outline: 0px; vertical-align: baseline; background-image: initial; background-position: 0px 0px; background-size: initial; background-repeat: initial; background-attachment: initial; background-origin: initial; background-clip: initial; text-align: justify;&quot;&gt;□&lt;/b&gt;" style="edgeLabel;html=1;align=center;verticalAlign=middle;resizable=0;points=[];" parent="WgcDXFxmqLb7g-pY7TiZ-111" vertex="1" connectable="0">
          <mxGeometry x="-0.156" y="-1" relative="1" as="geometry">
            <mxPoint x="1" y="1" as="offset" />
          </mxGeometry>
        </mxCell>
        <mxCell id="WgcDXFxmqLb7g-pY7TiZ-113" value="Bake Bread from Dough&lt;div&gt;&amp;lt;Physical, Control&amp;gt;&lt;/div&gt;" style="rounded=0;whiteSpace=wrap;html=1;" parent="1" vertex="1">
          <mxGeometry x="870" y="830" width="120" height="80" as="geometry" />
        </mxCell>
        <mxCell id="WgcDXFxmqLb7g-pY7TiZ-114" value="EE_1&lt;div&gt;&amp;lt;Power&amp;gt;&lt;/div&gt;" style="ellipse;whiteSpace=wrap;html=1;aspect=fixed;" parent="1" vertex="1">
          <mxGeometry x="800" y="690" width="80" height="80" as="geometry" />
        </mxCell>
        <mxCell id="WgcDXFxmqLb7g-pY7TiZ-115" style="edgeStyle=orthogonalEdgeStyle;rounded=0;orthogonalLoop=1;jettySize=auto;html=1;exitX=1;exitY=0.5;exitDx=0;exitDy=0;" parent="1" source="WgcDXFxmqLb7g-pY7TiZ-117" target="WgcDXFxmqLb7g-pY7TiZ-106" edge="1">
          <mxGeometry relative="1" as="geometry" />
        </mxCell>
        <mxCell id="WgcDXFxmqLb7g-pY7TiZ-116" value="loaf is bread" style="edgeLabel;html=1;align=center;verticalAlign=middle;resizable=0;points=[];" parent="WgcDXFxmqLb7g-pY7TiZ-115" vertex="1" connectable="0">
          <mxGeometry x="-0.4656" y="1" relative="1" as="geometry">
            <mxPoint as="offset" />
          </mxGeometry>
        </mxCell>
        <mxCell id="WgcDXFxmqLb7g-pY7TiZ-117" value="&lt;span style=&quot;font-size: 11px;&quot;&gt;Loaf&lt;/span&gt;&lt;br style=&quot;font-size: 11px;&quot;&gt;&lt;span style=&quot;font-size: 11px;&quot;&gt;&amp;lt;Dough, Bread&amp;gt;&lt;/span&gt;" style="ellipse;whiteSpace=wrap;html=1;aspect=fixed;" parent="1" vertex="1">
          <mxGeometry x="890" y="970" width="80" height="80" as="geometry" />
        </mxCell>
        <mxCell id="WgcDXFxmqLb7g-pY7TiZ-118" value="&lt;b&gt;Discrete Process: &lt;/b&gt;Single loaf of bread is made from single lump of dough" style="rounded=0;whiteSpace=wrap;html=1;" parent="1" vertex="1">
          <mxGeometry x="960" y="702.5" width="220" height="50" as="geometry" />
        </mxCell>
        <mxCell id="WgcDXFxmqLb7g-pY7TiZ-119" value="&lt;b&gt;Implied failure propagation: &lt;/b&gt;If we can&#39;t bake bread, we can&#39;t export bread (and we may draw too much EE)" style="rounded=0;whiteSpace=wrap;html=1;" parent="1" vertex="1">
          <mxGeometry x="942.5" y="775" width="237.5" height="50" as="geometry" />
        </mxCell>
        <mxCell id="WgcDXFxmqLb7g-pY7TiZ-120" value="&lt;b&gt;ED&lt;/b&gt;" style="rounded=0;whiteSpace=wrap;html=1;" parent="1" vertex="1">
          <mxGeometry x="770" y="830" width="20" height="20" as="geometry" />
        </mxCell>
        <mxCell id="WgcDXFxmqLb7g-pY7TiZ-121" value="&lt;b&gt;IR&lt;/b&gt;" style="rounded=0;whiteSpace=wrap;html=1;" parent="1" vertex="1">
          <mxGeometry x="970" y="890" width="20" height="20" as="geometry" />
        </mxCell>
        <mxCell id="WgcDXFxmqLb7g-pY7TiZ-122" value="&lt;b&gt;EV&lt;/b&gt;" style="rounded=0;whiteSpace=wrap;html=1;" parent="1" vertex="1">
          <mxGeometry x="770" y="940" width="20" height="20" as="geometry" />
        </mxCell>
        <mxCell id="WgcDXFxmqLb7g-pY7TiZ-123" value="&lt;b&gt;EV&lt;/b&gt;" style="rounded=0;whiteSpace=wrap;html=1;" parent="1" vertex="1">
          <mxGeometry x="1170" y="880" width="20" height="20" as="geometry" />
        </mxCell>
        <mxCell id="WgcDXFxmqLb7g-pY7TiZ-124" value="" style="group" parent="1" vertex="1" connectable="0">
          <mxGeometry x="670" y="900" width="40" height="20" as="geometry" />
        </mxCell>
        <mxCell id="WgcDXFxmqLb7g-pY7TiZ-125" value="s:1:o" style="shape=offPageConnector;whiteSpace=wrap;html=1;" parent="WgcDXFxmqLb7g-pY7TiZ-124" vertex="1">
          <mxGeometry width="40" height="20" as="geometry" />
        </mxCell>
        <mxCell id="WgcDXFxmqLb7g-pY7TiZ-126" style="edgeStyle=orthogonalEdgeStyle;rounded=0;orthogonalLoop=1;jettySize=auto;html=1;exitX=0;exitY=0;exitDx=0;exitDy=0;entryX=0.75;entryY=0;entryDx=0;entryDy=0;startArrow=baseDash;startFill=0;" parent="WgcDXFxmqLb7g-pY7TiZ-124" edge="1">
          <mxGeometry relative="1" as="geometry">
            <mxPoint x="22.5" as="targetPoint" />
            <Array as="points" />
            <mxPoint as="sourcePoint" />
          </mxGeometry>
        </mxCell>
        <mxCell id="WgcDXFxmqLb7g-pY7TiZ-127" value="i::e" style="shape=offPageConnector;whiteSpace=wrap;html=1;" parent="1" vertex="1">
          <mxGeometry x="1070" y="840" width="30" height="20" as="geometry" />
        </mxCell>
        <mxCell id="WgcDXFxmqLb7g-pY7TiZ-128" style="edgeStyle=orthogonalEdgeStyle;rounded=0;orthogonalLoop=1;jettySize=auto;html=1;exitX=0;exitY=0;exitDx=0;exitDy=0;entryX=1;entryY=0;entryDx=0;entryDy=0;endArrow=ERoneToMany;endFill=0;" parent="1" target="WgcDXFxmqLb7g-pY7TiZ-127" edge="1">
          <mxGeometry relative="1" as="geometry">
            <mxPoint x="1095" y="840" as="targetPoint" />
            <Array as="points" />
            <mxPoint x="1080" y="840" as="sourcePoint" />
          </mxGeometry>
        </mxCell>
        <mxCell id="WgcDXFxmqLb7g-pY7TiZ-129" value="&lt;b&gt;C&lt;/b&gt;" style="shape=offPageConnector;whiteSpace=wrap;html=1;direction=north;size=0.25;" parent="1" vertex="1">
          <mxGeometry x="870" y="890" width="30" height="20" as="geometry" />
        </mxCell>
        <mxCell id="WgcDXFxmqLb7g-pY7TiZ-130" value="&lt;b&gt;A&lt;/b&gt;" style="shape=offPageConnector;whiteSpace=wrap;html=1;direction=north;size=0.25;" parent="1" vertex="1">
          <mxGeometry x="670" y="940" width="30" height="20" as="geometry" />
        </mxCell>
        <mxCell id="WgcDXFxmqLb7g-pY7TiZ-131" value="&lt;b&gt;A&lt;/b&gt;" style="shape=offPageConnector;whiteSpace=wrap;html=1;direction=north;size=0.25;" parent="1" vertex="1">
          <mxGeometry x="1070" y="880" width="30" height="20" as="geometry" />
        </mxCell>
        <mxCell id="WgcDXFxmqLb7g-pY7TiZ-132" value="new voltage" style="edgeStyle=orthogonalEdgeStyle;rounded=0;orthogonalLoop=1;jettySize=auto;html=1;exitX=0.5;exitY=0;exitDx=0;exitDy=0;startArrow=none;startFill=0;entryX=0;entryY=0.5;entryDx=0;entryDy=0;" parent="1" source="WgcDXFxmqLb7g-pY7TiZ-107" target="WgcDXFxmqLb7g-pY7TiZ-114" edge="1">
          <mxGeometry x="-0.0667" relative="1" as="geometry">
            <mxPoint x="530" y="709.52" as="sourcePoint" />
            <mxPoint x="610" y="654.52" as="targetPoint" />
            <mxPoint as="offset" />
          </mxGeometry>
        </mxCell>
        <mxCell id="WgcDXFxmqLb7g-pY7TiZ-133" value="new current (r)" style="edgeStyle=orthogonalEdgeStyle;rounded=0;orthogonalLoop=1;jettySize=auto;html=1;exitX=0.5;exitY=0;exitDx=0;exitDy=0;startArrow=classic;startFill=1;entryX=1;entryY=0.5;entryDx=0;entryDy=0;" parent="1" source="WgcDXFxmqLb7g-pY7TiZ-113" target="WgcDXFxmqLb7g-pY7TiZ-114" edge="1">
          <mxGeometry relative="1" as="geometry">
            <mxPoint x="730" y="759.52" as="sourcePoint" />
            <mxPoint x="680" y="654.52" as="targetPoint" />
          </mxGeometry>
        </mxCell>
        <mxCell id="WgcDXFxmqLb7g-pY7TiZ-134" value="" style="endArrow=none;dashed=1;html=1;dashPattern=1 3;strokeWidth=2;rounded=0;" parent="1" edge="1">
          <mxGeometry width="50" height="50" relative="1" as="geometry">
            <mxPoint x="640" y="640" as="sourcePoint" />
            <mxPoint x="1200" y="640" as="targetPoint" />
          </mxGeometry>
        </mxCell>
        <mxCell id="WgcDXFxmqLb7g-pY7TiZ-135" value="" style="endArrow=none;dashed=1;html=1;dashPattern=1 3;strokeWidth=2;rounded=0;" parent="1" edge="1">
          <mxGeometry width="50" height="50" relative="1" as="geometry">
            <mxPoint x="1280" y="640" as="sourcePoint" />
            <mxPoint x="1840" y="640" as="targetPoint" />
          </mxGeometry>
        </mxCell>
        <mxCell id="aAXjh04-vBT4OPFpbodi-1" style="edgeStyle=orthogonalEdgeStyle;rounded=0;orthogonalLoop=1;jettySize=auto;html=1;exitX=0;exitY=0.75;exitDx=0;exitDy=0;entryX=1;entryY=0.67;entryDx=0;entryDy=0;entryPerimeter=0;dashed=1;endArrow=open;endFill=0;" parent="1" source="WgcDXFxmqLb7g-pY7TiZ-60" target="WgcDXFxmqLb7g-pY7TiZ-50" edge="1">
          <mxGeometry relative="1" as="geometry" />
        </mxCell>
        <mxCell id="aAXjh04-vBT4OPFpbodi-2" value="Bread&lt;div&gt;removed&lt;/div&gt;" style="edgeLabel;html=1;align=center;verticalAlign=middle;resizable=0;points=[];" parent="aAXjh04-vBT4OPFpbodi-1" vertex="1" connectable="0">
          <mxGeometry x="-0.1225" relative="1" as="geometry">
            <mxPoint as="offset" />
          </mxGeometry>
        </mxCell>
        <mxCell id="aAXjh04-vBT4OPFpbodi-3" value="Ready&lt;div&gt;for dough&lt;/div&gt;" style="rounded=0;orthogonalLoop=1;jettySize=auto;html=1;dashed=1;endArrow=open;endFill=0;startArrow=none;startFill=0;entryX=1.096;entryY=-0.176;entryDx=0;entryDy=0;entryPerimeter=0;exitX=0.436;exitY=-0.085;exitDx=0;exitDy=0;exitPerimeter=0;" parent="1" source="WgcDXFxmqLb7g-pY7TiZ-71" target="WgcDXFxmqLb7g-pY7TiZ-62" edge="1">
          <mxGeometry x="0.1187" y="10" relative="1" as="geometry">
            <mxPoint x="1460" y="490" as="sourcePoint" />
            <mxPoint x="1510" y="456" as="targetPoint" />
            <mxPoint as="offset" />
            <Array as="points" />
          </mxGeometry>
        </mxCell>
        <mxCell id="aAXjh04-vBT4OPFpbodi-4" value="0::e" style="shape=offPageConnector;whiteSpace=wrap;html=1;" parent="1" vertex="1">
          <mxGeometry x="1300" y="360" width="20" height="20" as="geometry" />
        </mxCell>
        <mxCell id="aAXjh04-vBT4OPFpbodi-6" value="" style="group" parent="1" vertex="1" connectable="0">
          <mxGeometry x="860" y="400" width="40" height="20" as="geometry" />
        </mxCell>
        <mxCell id="aAXjh04-vBT4OPFpbodi-7" value="i:1:o" style="shape=offPageConnector;whiteSpace=wrap;html=1;" parent="aAXjh04-vBT4OPFpbodi-6" vertex="1">
          <mxGeometry width="40" height="20" as="geometry" />
        </mxCell>
        <mxCell id="RKxkBCqw5ybo1AUx_BJd-1" value="s::e" style="shape=offPageConnector;whiteSpace=wrap;html=1;" parent="1" vertex="1">
          <mxGeometry x="660" y="360" width="20" height="20" as="geometry" />
        </mxCell>
        <mxCell id="RKxkBCqw5ybo1AUx_BJd-2" value="s::e" style="shape=offPageConnector;whiteSpace=wrap;html=1;" parent="1" vertex="1">
          <mxGeometry x="670" y="790" width="20" height="20" as="geometry" />
        </mxCell>
        <mxCell id="RKxkBCqw5ybo1AUx_BJd-3" value="" style="group" parent="1" vertex="1" connectable="0">
          <mxGeometry x="870" y="830" width="40" height="20" as="geometry" />
        </mxCell>
        <mxCell id="RKxkBCqw5ybo1AUx_BJd-4" value="i:1:o" style="shape=offPageConnector;whiteSpace=wrap;html=1;" parent="RKxkBCqw5ybo1AUx_BJd-3" vertex="1">
          <mxGeometry width="40" height="20" as="geometry" />
        </mxCell>
        <mxCell id="RKxkBCqw5ybo1AUx_BJd-5" value="&lt;b&gt;Continuous Process: &lt;/b&gt;Loaves of bread are continuously made from lumps of dough as they pass through the function" style="rounded=0;whiteSpace=wrap;html=1;" parent="1" vertex="1">
          <mxGeometry x="1640" y="680" width="230" height="55" as="geometry" />
        </mxCell>
        <mxCell id="RKxkBCqw5ybo1AUx_BJd-6" value="&lt;b&gt;Implied failure propagation: &lt;/b&gt;If we can&#39;t bake bread, we can&#39;t export bread, and we may end up with a lot of uncooked dough!" style="rounded=0;whiteSpace=wrap;html=1;" parent="1" vertex="1">
          <mxGeometry x="1640" y="755" width="260" height="50" as="geometry" />
        </mxCell>
        <mxCell id="RKxkBCqw5ybo1AUx_BJd-7" value="0::e" style="shape=offPageConnector;whiteSpace=wrap;html=1;" parent="1" vertex="1">
          <mxGeometry x="1330" y="780" width="20" height="20" as="geometry" />
        </mxCell>
      </root>
    </mxGraphModel>
  </diagram>
  <diagram id="TZ1g7iUd2kmIwjNzbuQ2" name="Analysis">
    <mxGraphModel dx="255" dy="662" grid="1" gridSize="10" guides="1" tooltips="1" connect="1" arrows="1" fold="1" page="1" pageScale="1" pageWidth="850" pageHeight="1100" math="0" shadow="0">
      <root>
        <mxCell id="0" />
        <mxCell id="1" parent="0" />
        <mxCell id="LFjVtD7tM92_0hhKICRg-1" value="Import EE&lt;div&gt;&amp;lt;Physical&amp;gt;&lt;/div&gt;" style="rounded=0;whiteSpace=wrap;html=1;" vertex="1" parent="1">
          <mxGeometry x="940" y="152.5" width="120" height="60" as="geometry" />
        </mxCell>
        <mxCell id="LFjVtD7tM92_0hhKICRg-2" value="Import Dough&lt;div&gt;&amp;lt;Human&amp;gt;&lt;/div&gt;" style="rounded=0;whiteSpace=wrap;html=1;" vertex="1" parent="1">
          <mxGeometry x="940" y="262.5" width="120" height="60" as="geometry" />
        </mxCell>
        <mxCell id="LFjVtD7tM92_0hhKICRg-3" value="Bake Bread from Dough&lt;div&gt;&amp;lt;Physical, Control&amp;gt;&lt;/div&gt;" style="rounded=0;whiteSpace=wrap;html=1;" vertex="1" parent="1">
          <mxGeometry x="1140" y="192.5" width="120" height="80" as="geometry" />
        </mxCell>
        <mxCell id="LFjVtD7tM92_0hhKICRg-4" value="EE_1&lt;div&gt;&amp;lt;Power&amp;gt;&lt;/div&gt;" style="ellipse;whiteSpace=wrap;html=1;aspect=fixed;" vertex="1" parent="1">
          <mxGeometry x="1080" y="62.5" width="70" height="70" as="geometry" />
        </mxCell>
        <mxCell id="LFjVtD7tM92_0hhKICRg-5" value="Dough Input&lt;div&gt;&amp;lt;Dough&amp;gt;&lt;/div&gt;" style="ellipse;whiteSpace=wrap;html=1;aspect=fixed;" vertex="1" parent="1">
          <mxGeometry x="1100" y="322.5" width="80" height="80" as="geometry" />
        </mxCell>
        <mxCell id="LFjVtD7tM92_0hhKICRg-6" value="Bread Output&lt;div&gt;&amp;lt;Bread&amp;gt;&lt;/div&gt;" style="ellipse;whiteSpace=wrap;html=1;aspect=fixed;" vertex="1" parent="1">
          <mxGeometry x="1260" y="322.5" width="80" height="80" as="geometry" />
        </mxCell>
        <mxCell id="LFjVtD7tM92_0hhKICRg-7" value="Export Bread&lt;div&gt;&amp;lt;Human&amp;gt;&lt;/div&gt;" style="rounded=0;whiteSpace=wrap;html=1;" vertex="1" parent="1">
          <mxGeometry x="1350" y="202.5" width="120" height="60" as="geometry" />
        </mxCell>
        <mxCell id="LFjVtD7tM92_0hhKICRg-8" value="&lt;b&gt;EV&lt;/b&gt;" style="rounded=0;whiteSpace=wrap;html=1;" vertex="1" parent="1">
          <mxGeometry x="1030" y="302.5" width="30" height="20" as="geometry" />
        </mxCell>
        <mxCell id="LFjVtD7tM92_0hhKICRg-9" value="&lt;b&gt;EV&lt;/b&gt;" style="rounded=0;whiteSpace=wrap;html=1;" vertex="1" parent="1">
          <mxGeometry x="1440" y="242.5" width="30" height="20" as="geometry" />
        </mxCell>
        <mxCell id="LFjVtD7tM92_0hhKICRg-10" value="&lt;b&gt;ED&lt;/b&gt;" style="rounded=0;whiteSpace=wrap;html=1;" vertex="1" parent="1">
          <mxGeometry x="1040" y="192.5" width="20" height="20" as="geometry" />
        </mxCell>
        <mxCell id="LFjVtD7tM92_0hhKICRg-11" value="&lt;b&gt;IR&lt;/b&gt;" style="rounded=0;whiteSpace=wrap;html=1;" vertex="1" parent="1">
          <mxGeometry x="1240" y="252.5" width="20" height="20" as="geometry" />
        </mxCell>
        <mxCell id="LFjVtD7tM92_0hhKICRg-12" value="i::100" style="shape=offPageConnector;whiteSpace=wrap;html=1;" vertex="1" parent="1">
          <mxGeometry x="1350" y="202.5" width="40" height="20" as="geometry" />
        </mxCell>
        <mxCell id="LFjVtD7tM92_0hhKICRg-13" style="edgeStyle=orthogonalEdgeStyle;rounded=0;orthogonalLoop=1;jettySize=auto;html=1;exitX=0;exitY=0;exitDx=0;exitDy=0;entryX=1;entryY=0;entryDx=0;entryDy=0;endArrow=ERoneToMany;endFill=0;" edge="1" parent="1" target="LFjVtD7tM92_0hhKICRg-12">
          <mxGeometry relative="1" as="geometry">
            <mxPoint x="1385" y="202.5" as="targetPoint" />
            <Array as="points" />
            <mxPoint x="1370" y="202.5" as="sourcePoint" />
          </mxGeometry>
        </mxCell>
        <mxCell id="LFjVtD7tM92_0hhKICRg-14" value="" style="group" vertex="1" connectable="0" parent="1">
          <mxGeometry x="1140" y="202.5" width="50" height="20" as="geometry" />
        </mxCell>
        <mxCell id="LFjVtD7tM92_0hhKICRg-15" value="i:dt:e" style="shape=offPageConnector;whiteSpace=wrap;html=1;" vertex="1" parent="LFjVtD7tM92_0hhKICRg-14">
          <mxGeometry y="-10" width="30" height="20" as="geometry" />
        </mxCell>
        <mxCell id="LFjVtD7tM92_0hhKICRg-16" value="&lt;b&gt;CA&lt;/b&gt;" style="shape=offPageConnector;whiteSpace=wrap;html=1;direction=north;size=0.25;" vertex="1" parent="1">
          <mxGeometry x="1140" y="252.5" width="30" height="20" as="geometry" />
        </mxCell>
        <mxCell id="LFjVtD7tM92_0hhKICRg-17" value="" style="group" vertex="1" connectable="0" parent="1">
          <mxGeometry x="940" y="262.5" width="40" height="20" as="geometry" />
        </mxCell>
        <mxCell id="LFjVtD7tM92_0hhKICRg-18" value="s::e" style="shape=offPageConnector;whiteSpace=wrap;html=1;" vertex="1" parent="LFjVtD7tM92_0hhKICRg-17">
          <mxGeometry width="20" height="20" as="geometry" />
        </mxCell>
        <mxCell id="LFjVtD7tM92_0hhKICRg-19" style="edgeStyle=orthogonalEdgeStyle;rounded=0;orthogonalLoop=1;jettySize=auto;html=1;exitX=0;exitY=0;exitDx=0;exitDy=0;entryX=0.75;entryY=0;entryDx=0;entryDy=0;startArrow=baseDash;startFill=0;" edge="1" parent="LFjVtD7tM92_0hhKICRg-17">
          <mxGeometry relative="1" as="geometry">
            <mxPoint x="22.5" as="targetPoint" />
            <Array as="points" />
            <mxPoint as="sourcePoint" />
          </mxGeometry>
        </mxCell>
        <mxCell id="LFjVtD7tM92_0hhKICRg-20" value="new voltage" style="edgeStyle=orthogonalEdgeStyle;rounded=0;orthogonalLoop=1;jettySize=auto;html=1;exitX=0.5;exitY=0;exitDx=0;exitDy=0;entryX=0;entryY=0.5;entryDx=0;entryDy=0;startArrow=none;startFill=0;" edge="1" parent="1" source="LFjVtD7tM92_0hhKICRg-1" target="LFjVtD7tM92_0hhKICRg-4">
          <mxGeometry x="-0.0667" relative="1" as="geometry">
            <mxPoint x="920" y="-20" as="sourcePoint" />
            <mxPoint x="890" y="60" as="targetPoint" />
            <mxPoint as="offset" />
          </mxGeometry>
        </mxCell>
        <mxCell id="LFjVtD7tM92_0hhKICRg-21" value="new current (r)" style="edgeStyle=orthogonalEdgeStyle;rounded=0;orthogonalLoop=1;jettySize=auto;html=1;exitX=0.5;exitY=0;exitDx=0;exitDy=0;startArrow=classic;startFill=1;entryX=1;entryY=0.5;entryDx=0;entryDy=0;endArrow=none;endFill=0;" edge="1" parent="1" source="LFjVtD7tM92_0hhKICRg-3" target="LFjVtD7tM92_0hhKICRg-4">
          <mxGeometry relative="1" as="geometry">
            <mxPoint x="1340" y="-15" as="sourcePoint" />
            <mxPoint x="1270" y="115" as="targetPoint" />
          </mxGeometry>
        </mxCell>
        <mxCell id="LFjVtD7tM92_0hhKICRg-22" value="dough put in" style="edgeStyle=orthogonalEdgeStyle;rounded=0;orthogonalLoop=1;jettySize=auto;html=1;exitX=0.5;exitY=1;exitDx=0;exitDy=0;entryX=0;entryY=0.5;entryDx=0;entryDy=0;startArrow=none;startFill=0;" edge="1" parent="1" source="LFjVtD7tM92_0hhKICRg-2" target="LFjVtD7tM92_0hhKICRg-5">
          <mxGeometry x="-0.1667" relative="1" as="geometry">
            <mxPoint x="1004.75" y="462.5" as="sourcePoint" />
            <mxPoint x="1074.75" y="402.5" as="targetPoint" />
            <mxPoint as="offset" />
          </mxGeometry>
        </mxCell>
        <mxCell id="LFjVtD7tM92_0hhKICRg-23" value="&lt;span style=&quot;border: 0px; margin: 0px; padding: 0px; outline: 0px; vertical-align: baseline; background-image: initial; background-position: 0px 0px; background-size: initial; background-repeat: initial; background-attachment: initial; background-origin: initial; background-clip: initial; text-align: justify;&quot;&gt;ready for dough (r)&lt;/span&gt;" style="edgeStyle=orthogonalEdgeStyle;rounded=0;orthogonalLoop=1;jettySize=auto;html=1;exitX=0.5;exitY=0;exitDx=0;exitDy=0;entryX=0;entryY=1;entryDx=0;entryDy=0;startArrow=none;startFill=0;" edge="1" parent="1" source="LFjVtD7tM92_0hhKICRg-5" target="LFjVtD7tM92_0hhKICRg-16">
          <mxGeometry x="-0.1111" relative="1" as="geometry">
            <mxPoint x="1010" y="332.5" as="sourcePoint" />
            <mxPoint x="1100" y="362.5" as="targetPoint" />
            <mxPoint as="offset" />
          </mxGeometry>
        </mxCell>
        <mxCell id="LFjVtD7tM92_0hhKICRg-24" value="&lt;span style=&quot;border: 0px; margin: 0px; padding: 0px; outline: 0px; vertical-align: baseline; background-image: initial; background-position: 0px 0px; background-size: initial; background-repeat: initial; background-attachment: initial; background-origin: initial; background-clip: initial; text-align: justify;&quot;&gt;bread ready&lt;br&gt;&lt;/span&gt;" style="edgeStyle=orthogonalEdgeStyle;rounded=0;orthogonalLoop=1;jettySize=auto;html=1;exitX=0.5;exitY=0;exitDx=0;exitDy=0;entryX=0.25;entryY=1;entryDx=0;entryDy=0;startArrow=classic;startFill=1;endArrow=none;endFill=0;" edge="1" parent="1" source="LFjVtD7tM92_0hhKICRg-6" target="LFjVtD7tM92_0hhKICRg-11">
          <mxGeometry x="0.1136" relative="1" as="geometry">
            <mxPoint x="1184.75" y="352.5" as="sourcePoint" />
            <mxPoint x="1214.75" y="292.5" as="targetPoint" />
            <mxPoint as="offset" />
          </mxGeometry>
        </mxCell>
        <mxCell id="LFjVtD7tM92_0hhKICRg-25" value="&lt;span style=&quot;border: 0px; margin: 0px; padding: 0px; outline: 0px; vertical-align: baseline; background-image: initial; background-position: 0px 0px; background-size: initial; background-repeat: initial; background-attachment: initial; background-origin: initial; background-clip: initial; text-align: justify;&quot;&gt;bread&lt;br&gt;removed (r)&lt;br&gt;&lt;/span&gt;" style="edgeStyle=orthogonalEdgeStyle;rounded=0;orthogonalLoop=1;jettySize=auto;html=1;entryX=1;entryY=0.5;entryDx=0;entryDy=0;startArrow=classic;startFill=1;exitX=0.5;exitY=1;exitDx=0;exitDy=0;endArrow=none;endFill=0;" edge="1" parent="1" source="LFjVtD7tM92_0hhKICRg-7" target="LFjVtD7tM92_0hhKICRg-6">
          <mxGeometry x="0.1111" relative="1" as="geometry">
            <mxPoint x="1440" y="323.5" as="sourcePoint" />
            <mxPoint x="1240" y="272.5" as="targetPoint" />
            <mxPoint as="offset" />
          </mxGeometry>
        </mxCell>
        <mxCell id="LFjVtD7tM92_0hhKICRg-28" value="0::e" style="shape=offPageConnector;whiteSpace=wrap;html=1;" vertex="1" parent="1">
          <mxGeometry x="940" y="152.5" width="20" height="20" as="geometry" />
        </mxCell>
        <mxCell id="LFjVtD7tM92_0hhKICRg-82" value="" style="rounded=0;whiteSpace=wrap;html=1;fillColor=none;strokeColor=#FF1100;strokeWidth=3;" vertex="1" parent="1">
          <mxGeometry x="1135" y="182.5" width="135" height="100" as="geometry" />
        </mxCell>
        <mxCell id="LFjVtD7tM92_0hhKICRg-83" value="&lt;font color=&quot;#ff1100&quot; style=&quot;font-size: 14px;&quot;&gt;&lt;b&gt;Failure Scenario:&amp;nbsp; Mechanical conveyor stuck&lt;/b&gt;&lt;/font&gt;" style="text;html=1;align=center;verticalAlign=middle;whiteSpace=wrap;rounded=0;" vertex="1" parent="1">
          <mxGeometry x="1205" y="132.5" width="185" height="45" as="geometry" />
        </mxCell>
        <mxCell id="LFjVtD7tM92_0hhKICRg-86" value="" style="endArrow=classic;html=1;rounded=0;strokeWidth=3;strokeColor=#FF1100;" edge="1" parent="1">
          <mxGeometry width="50" height="50" relative="1" as="geometry">
            <mxPoint x="1840" y="82.5" as="sourcePoint" />
            <mxPoint x="1797.5" y="82.5" as="targetPoint" />
          </mxGeometry>
        </mxCell>
        <mxCell id="LFjVtD7tM92_0hhKICRg-87" value="Import EE&lt;div&gt;&amp;lt;Physical&amp;gt;&lt;/div&gt;" style="rounded=0;whiteSpace=wrap;html=1;" vertex="1" parent="1">
          <mxGeometry x="1580" y="152.5" width="120" height="60" as="geometry" />
        </mxCell>
        <mxCell id="LFjVtD7tM92_0hhKICRg-88" value="Import Dough&lt;div&gt;&amp;lt;Human&amp;gt;&lt;/div&gt;" style="rounded=0;whiteSpace=wrap;html=1;" vertex="1" parent="1">
          <mxGeometry x="1580" y="262.5" width="120" height="60" as="geometry" />
        </mxCell>
        <mxCell id="LFjVtD7tM92_0hhKICRg-89" value="Bake Bread from Dough&lt;div&gt;&amp;lt;Physical, Control&amp;gt;&lt;/div&gt;" style="rounded=0;whiteSpace=wrap;html=1;" vertex="1" parent="1">
          <mxGeometry x="1780" y="192.5" width="120" height="80" as="geometry" />
        </mxCell>
        <mxCell id="LFjVtD7tM92_0hhKICRg-90" value="EE_1&lt;div&gt;&amp;lt;Power&amp;gt;&lt;/div&gt;" style="ellipse;whiteSpace=wrap;html=1;aspect=fixed;" vertex="1" parent="1">
          <mxGeometry x="1720" y="62.5" width="70" height="70" as="geometry" />
        </mxCell>
        <mxCell id="LFjVtD7tM92_0hhKICRg-91" value="Dough Input&lt;div&gt;&amp;lt;Dough&amp;gt;&lt;/div&gt;" style="ellipse;whiteSpace=wrap;html=1;aspect=fixed;" vertex="1" parent="1">
          <mxGeometry x="1740" y="322.5" width="80" height="80" as="geometry" />
        </mxCell>
        <mxCell id="LFjVtD7tM92_0hhKICRg-92" value="Bread Output&lt;div&gt;&amp;lt;Bread&amp;gt;&lt;/div&gt;" style="ellipse;whiteSpace=wrap;html=1;aspect=fixed;" vertex="1" parent="1">
          <mxGeometry x="1900" y="322.5" width="80" height="80" as="geometry" />
        </mxCell>
        <mxCell id="LFjVtD7tM92_0hhKICRg-93" value="Export Bread&lt;div&gt;&amp;lt;Human&amp;gt;&lt;/div&gt;" style="rounded=0;whiteSpace=wrap;html=1;" vertex="1" parent="1">
          <mxGeometry x="1990" y="202.5" width="120" height="60" as="geometry" />
        </mxCell>
        <mxCell id="LFjVtD7tM92_0hhKICRg-94" value="&lt;b&gt;EV&lt;/b&gt;" style="rounded=0;whiteSpace=wrap;html=1;" vertex="1" parent="1">
          <mxGeometry x="1670" y="302.5" width="30" height="20" as="geometry" />
        </mxCell>
        <mxCell id="LFjVtD7tM92_0hhKICRg-95" value="&lt;b&gt;EV&lt;/b&gt;" style="rounded=0;whiteSpace=wrap;html=1;" vertex="1" parent="1">
          <mxGeometry x="2080" y="242.5" width="30" height="20" as="geometry" />
        </mxCell>
        <mxCell id="LFjVtD7tM92_0hhKICRg-96" value="&lt;b&gt;ED&lt;/b&gt;" style="rounded=0;whiteSpace=wrap;html=1;" vertex="1" parent="1">
          <mxGeometry x="1680" y="192.5" width="20" height="20" as="geometry" />
        </mxCell>
        <mxCell id="LFjVtD7tM92_0hhKICRg-97" value="&lt;b&gt;IR&lt;/b&gt;" style="rounded=0;whiteSpace=wrap;html=1;" vertex="1" parent="1">
          <mxGeometry x="1880" y="252.5" width="20" height="20" as="geometry" />
        </mxCell>
        <mxCell id="LFjVtD7tM92_0hhKICRg-98" value="i::100" style="shape=offPageConnector;whiteSpace=wrap;html=1;" vertex="1" parent="1">
          <mxGeometry x="1990" y="202.5" width="40" height="20" as="geometry" />
        </mxCell>
        <mxCell id="LFjVtD7tM92_0hhKICRg-99" style="edgeStyle=orthogonalEdgeStyle;rounded=0;orthogonalLoop=1;jettySize=auto;html=1;exitX=0;exitY=0;exitDx=0;exitDy=0;entryX=1;entryY=0;entryDx=0;entryDy=0;endArrow=ERoneToMany;endFill=0;" edge="1" parent="1" target="LFjVtD7tM92_0hhKICRg-98">
          <mxGeometry relative="1" as="geometry">
            <mxPoint x="2025" y="202.5" as="targetPoint" />
            <Array as="points" />
            <mxPoint x="2010" y="202.5" as="sourcePoint" />
          </mxGeometry>
        </mxCell>
        <mxCell id="LFjVtD7tM92_0hhKICRg-100" value="" style="group" vertex="1" connectable="0" parent="1">
          <mxGeometry x="1780" y="202.5" width="50" height="20" as="geometry" />
        </mxCell>
        <mxCell id="LFjVtD7tM92_0hhKICRg-101" value="i:dt:e" style="shape=offPageConnector;whiteSpace=wrap;html=1;" vertex="1" parent="LFjVtD7tM92_0hhKICRg-100">
          <mxGeometry y="-10" width="30" height="20" as="geometry" />
        </mxCell>
        <mxCell id="LFjVtD7tM92_0hhKICRg-102" value="&lt;b&gt;CA&lt;/b&gt;" style="shape=offPageConnector;whiteSpace=wrap;html=1;direction=north;size=0.25;" vertex="1" parent="1">
          <mxGeometry x="1780" y="252.5" width="30" height="20" as="geometry" />
        </mxCell>
        <mxCell id="LFjVtD7tM92_0hhKICRg-103" value="" style="group" vertex="1" connectable="0" parent="1">
          <mxGeometry x="1580" y="262.5" width="40" height="20" as="geometry" />
        </mxCell>
        <mxCell id="LFjVtD7tM92_0hhKICRg-104" value="s::e" style="shape=offPageConnector;whiteSpace=wrap;html=1;" vertex="1" parent="LFjVtD7tM92_0hhKICRg-103">
          <mxGeometry width="20" height="20" as="geometry" />
        </mxCell>
        <mxCell id="LFjVtD7tM92_0hhKICRg-105" style="edgeStyle=orthogonalEdgeStyle;rounded=0;orthogonalLoop=1;jettySize=auto;html=1;exitX=0;exitY=0;exitDx=0;exitDy=0;entryX=0.75;entryY=0;entryDx=0;entryDy=0;startArrow=baseDash;startFill=0;" edge="1" parent="LFjVtD7tM92_0hhKICRg-103">
          <mxGeometry relative="1" as="geometry">
            <mxPoint x="22.5" as="targetPoint" />
            <Array as="points" />
            <mxPoint as="sourcePoint" />
          </mxGeometry>
        </mxCell>
        <mxCell id="LFjVtD7tM92_0hhKICRg-106" value="new voltage" style="edgeStyle=orthogonalEdgeStyle;rounded=0;orthogonalLoop=1;jettySize=auto;html=1;exitX=0.5;exitY=0;exitDx=0;exitDy=0;entryX=0;entryY=0.5;entryDx=0;entryDy=0;startArrow=none;startFill=0;" edge="1" parent="1" source="LFjVtD7tM92_0hhKICRg-87" target="LFjVtD7tM92_0hhKICRg-90">
          <mxGeometry x="-0.0667" relative="1" as="geometry">
            <mxPoint x="1560" y="-20" as="sourcePoint" />
            <mxPoint x="1530" y="60" as="targetPoint" />
            <mxPoint as="offset" />
          </mxGeometry>
        </mxCell>
        <mxCell id="LFjVtD7tM92_0hhKICRg-107" value="new current (r)" style="edgeStyle=orthogonalEdgeStyle;rounded=0;orthogonalLoop=1;jettySize=auto;html=1;exitX=0.5;exitY=0;exitDx=0;exitDy=0;startArrow=classic;startFill=1;entryX=1;entryY=0.5;entryDx=0;entryDy=0;endArrow=none;endFill=0;" edge="1" parent="1" source="LFjVtD7tM92_0hhKICRg-89" target="LFjVtD7tM92_0hhKICRg-90">
          <mxGeometry relative="1" as="geometry">
            <mxPoint x="1980" y="-15" as="sourcePoint" />
            <mxPoint x="1910" y="115" as="targetPoint" />
          </mxGeometry>
        </mxCell>
        <mxCell id="LFjVtD7tM92_0hhKICRg-108" value="dough put in" style="edgeStyle=orthogonalEdgeStyle;rounded=0;orthogonalLoop=1;jettySize=auto;html=1;exitX=0.5;exitY=1;exitDx=0;exitDy=0;entryX=0;entryY=0.5;entryDx=0;entryDy=0;startArrow=none;startFill=0;" edge="1" parent="1" source="LFjVtD7tM92_0hhKICRg-88" target="LFjVtD7tM92_0hhKICRg-91">
          <mxGeometry x="-0.1667" relative="1" as="geometry">
            <mxPoint x="1644.75" y="462.5" as="sourcePoint" />
            <mxPoint x="1714.75" y="402.5" as="targetPoint" />
            <mxPoint as="offset" />
          </mxGeometry>
        </mxCell>
        <mxCell id="LFjVtD7tM92_0hhKICRg-109" value="&lt;span style=&quot;border: 0px; margin: 0px; padding: 0px; outline: 0px; vertical-align: baseline; background-image: initial; background-position: 0px 0px; background-size: initial; background-repeat: initial; background-attachment: initial; background-origin: initial; background-clip: initial; text-align: justify;&quot;&gt;ready for dough (r)&lt;/span&gt;" style="edgeStyle=orthogonalEdgeStyle;rounded=0;orthogonalLoop=1;jettySize=auto;html=1;exitX=0.5;exitY=0;exitDx=0;exitDy=0;entryX=0;entryY=1;entryDx=0;entryDy=0;startArrow=none;startFill=0;" edge="1" parent="1" source="LFjVtD7tM92_0hhKICRg-91" target="LFjVtD7tM92_0hhKICRg-102">
          <mxGeometry x="-0.1111" relative="1" as="geometry">
            <mxPoint x="1650" y="332.5" as="sourcePoint" />
            <mxPoint x="1740" y="362.5" as="targetPoint" />
            <mxPoint as="offset" />
          </mxGeometry>
        </mxCell>
        <mxCell id="LFjVtD7tM92_0hhKICRg-110" value="&lt;span style=&quot;border: 0px; margin: 0px; padding: 0px; outline: 0px; vertical-align: baseline; background-image: initial; background-position: 0px 0px; background-size: initial; background-repeat: initial; background-attachment: initial; background-origin: initial; background-clip: initial; text-align: justify;&quot;&gt;bread ready&lt;br&gt;&lt;/span&gt;" style="edgeStyle=orthogonalEdgeStyle;rounded=0;orthogonalLoop=1;jettySize=auto;html=1;exitX=0.5;exitY=0;exitDx=0;exitDy=0;entryX=0.25;entryY=1;entryDx=0;entryDy=0;startArrow=classic;startFill=1;endArrow=none;endFill=0;" edge="1" parent="1" source="LFjVtD7tM92_0hhKICRg-92" target="LFjVtD7tM92_0hhKICRg-97">
          <mxGeometry x="0.1136" relative="1" as="geometry">
            <mxPoint x="1824.75" y="352.5" as="sourcePoint" />
            <mxPoint x="1854.75" y="292.5" as="targetPoint" />
            <mxPoint as="offset" />
          </mxGeometry>
        </mxCell>
        <mxCell id="LFjVtD7tM92_0hhKICRg-111" value="&lt;span style=&quot;border: 0px; margin: 0px; padding: 0px; outline: 0px; vertical-align: baseline; background-image: initial; background-position: 0px 0px; background-size: initial; background-repeat: initial; background-attachment: initial; background-origin: initial; background-clip: initial; text-align: justify;&quot;&gt;bread&lt;br&gt;removed (r)&lt;br&gt;&lt;/span&gt;" style="edgeStyle=orthogonalEdgeStyle;rounded=0;orthogonalLoop=1;jettySize=auto;html=1;entryX=1;entryY=0.5;entryDx=0;entryDy=0;startArrow=classic;startFill=1;exitX=0.5;exitY=1;exitDx=0;exitDy=0;endArrow=none;endFill=0;" edge="1" parent="1" source="LFjVtD7tM92_0hhKICRg-93" target="LFjVtD7tM92_0hhKICRg-92">
          <mxGeometry x="0.1111" relative="1" as="geometry">
            <mxPoint x="2080" y="323.5" as="sourcePoint" />
            <mxPoint x="1880" y="272.5" as="targetPoint" />
            <mxPoint as="offset" />
          </mxGeometry>
        </mxCell>
        <mxCell id="LFjVtD7tM92_0hhKICRg-112" value="0::e" style="shape=offPageConnector;whiteSpace=wrap;html=1;" vertex="1" parent="1">
          <mxGeometry x="1580" y="152.5" width="20" height="20" as="geometry" />
        </mxCell>
        <mxCell id="LFjVtD7tM92_0hhKICRg-113" value="" style="rounded=0;whiteSpace=wrap;html=1;fillColor=none;strokeColor=#999999;strokeWidth=3;" vertex="1" parent="1">
          <mxGeometry x="1775" y="182.5" width="135" height="100" as="geometry" />
        </mxCell>
        <mxCell id="LFjVtD7tM92_0hhKICRg-114" value="&lt;font style=&quot;font-size: 14px;&quot;&gt;&lt;b&gt;Failure Scenario:&amp;nbsp; Mechanical conveyor stuck&lt;/b&gt;&lt;/font&gt;" style="text;html=1;align=center;verticalAlign=middle;whiteSpace=wrap;rounded=0;fontColor=#999999;" vertex="1" parent="1">
          <mxGeometry x="1885" y="132.5" width="185" height="45" as="geometry" />
        </mxCell>
        <mxCell id="LFjVtD7tM92_0hhKICRg-115" value="&lt;font color=&quot;#ff1100&quot;&gt;&lt;span style=&quot;font-size: 14px;&quot;&gt;&lt;b&gt;Mechanical resistance causes adverse current draw&lt;/b&gt;&lt;/span&gt;&lt;/font&gt;" style="text;html=1;align=center;verticalAlign=middle;whiteSpace=wrap;rounded=0;" vertex="1" parent="1">
          <mxGeometry x="1840" y="52.5" width="210" height="45" as="geometry" />
        </mxCell>
        <mxCell id="LFjVtD7tM92_0hhKICRg-117" value="" style="endArrow=classic;html=1;rounded=0;strokeWidth=3;strokeColor=#FF1100;" edge="1" parent="1" source="LFjVtD7tM92_0hhKICRg-118">
          <mxGeometry width="50" height="50" relative="1" as="geometry">
            <mxPoint x="1720" y="422.5" as="sourcePoint" />
            <mxPoint x="1759.75" y="402.5" as="targetPoint" />
          </mxGeometry>
        </mxCell>
        <mxCell id="LFjVtD7tM92_0hhKICRg-118" value="&lt;font color=&quot;#ff1100&quot; style=&quot;font-size: 14px;&quot;&gt;&lt;b&gt;Dough not moved in&lt;/b&gt;&lt;/font&gt;" style="text;html=1;align=center;verticalAlign=middle;whiteSpace=wrap;rounded=0;" vertex="1" parent="1">
          <mxGeometry x="1540" y="382.5" width="160" height="45" as="geometry" />
        </mxCell>
        <mxCell id="LFjVtD7tM92_0hhKICRg-119" value="&lt;font color=&quot;#ff1100&quot; style=&quot;font-size: 14px;&quot;&gt;&lt;b&gt;Dough not moved out&lt;/b&gt;&lt;/font&gt;" style="text;html=1;align=center;verticalAlign=middle;whiteSpace=wrap;rounded=0;" vertex="1" parent="1">
          <mxGeometry x="2022.5" y="372.5" width="160" height="45" as="geometry" />
        </mxCell>
        <mxCell id="LFjVtD7tM92_0hhKICRg-120" value="" style="endArrow=classic;html=1;rounded=0;strokeWidth=3;strokeColor=#FF1100;" edge="1" parent="1" target="LFjVtD7tM92_0hhKICRg-92">
          <mxGeometry width="50" height="50" relative="1" as="geometry">
            <mxPoint x="2030" y="392.5" as="sourcePoint" />
            <mxPoint x="1940" y="492.5" as="targetPoint" />
          </mxGeometry>
        </mxCell>
        <mxCell id="LFjVtD7tM92_0hhKICRg-121" value="" style="endArrow=classic;html=1;rounded=0;strokeWidth=3;strokeColor=#999999;fontColor=#999999;" edge="1" parent="1">
          <mxGeometry width="50" height="50" relative="1" as="geometry">
            <mxPoint x="2680" y="82.5" as="sourcePoint" />
            <mxPoint x="2637.5" y="82.5" as="targetPoint" />
          </mxGeometry>
        </mxCell>
        <mxCell id="LFjVtD7tM92_0hhKICRg-122" value="Import EE&lt;div&gt;&amp;lt;Physical&amp;gt;&lt;/div&gt;" style="rounded=0;whiteSpace=wrap;html=1;" vertex="1" parent="1">
          <mxGeometry x="2420" y="152.5" width="120" height="60" as="geometry" />
        </mxCell>
        <mxCell id="LFjVtD7tM92_0hhKICRg-123" value="Import Dough&lt;div&gt;&amp;lt;Human&amp;gt;&lt;/div&gt;" style="rounded=0;whiteSpace=wrap;html=1;" vertex="1" parent="1">
          <mxGeometry x="2420" y="262.5" width="120" height="60" as="geometry" />
        </mxCell>
        <mxCell id="LFjVtD7tM92_0hhKICRg-124" value="Bake Bread from Dough&lt;div&gt;&amp;lt;Physical, Control&amp;gt;&lt;/div&gt;" style="rounded=0;whiteSpace=wrap;html=1;" vertex="1" parent="1">
          <mxGeometry x="2620" y="192.5" width="120" height="80" as="geometry" />
        </mxCell>
        <mxCell id="LFjVtD7tM92_0hhKICRg-125" value="EE_1&lt;div&gt;&amp;lt;Power&amp;gt;&lt;/div&gt;" style="ellipse;whiteSpace=wrap;html=1;aspect=fixed;" vertex="1" parent="1">
          <mxGeometry x="2560" y="62.5" width="70" height="70" as="geometry" />
        </mxCell>
        <mxCell id="LFjVtD7tM92_0hhKICRg-126" value="Dough Input&lt;div&gt;&amp;lt;Dough&amp;gt;&lt;/div&gt;" style="ellipse;whiteSpace=wrap;html=1;aspect=fixed;" vertex="1" parent="1">
          <mxGeometry x="2580" y="322.5" width="80" height="80" as="geometry" />
        </mxCell>
        <mxCell id="LFjVtD7tM92_0hhKICRg-127" value="Bread Output&lt;div&gt;&amp;lt;Bread&amp;gt;&lt;/div&gt;" style="ellipse;whiteSpace=wrap;html=1;aspect=fixed;" vertex="1" parent="1">
          <mxGeometry x="2740" y="322.5" width="80" height="80" as="geometry" />
        </mxCell>
        <mxCell id="LFjVtD7tM92_0hhKICRg-128" value="Export Bread&lt;div&gt;&amp;lt;Human&amp;gt;&lt;/div&gt;" style="rounded=0;whiteSpace=wrap;html=1;" vertex="1" parent="1">
          <mxGeometry x="2830" y="202.5" width="120" height="60" as="geometry" />
        </mxCell>
        <mxCell id="LFjVtD7tM92_0hhKICRg-129" value="&lt;b&gt;EV&lt;/b&gt;" style="rounded=0;whiteSpace=wrap;html=1;" vertex="1" parent="1">
          <mxGeometry x="2510" y="302.5" width="30" height="20" as="geometry" />
        </mxCell>
        <mxCell id="LFjVtD7tM92_0hhKICRg-130" value="&lt;b&gt;EV&lt;/b&gt;" style="rounded=0;whiteSpace=wrap;html=1;" vertex="1" parent="1">
          <mxGeometry x="2920" y="242.5" width="30" height="20" as="geometry" />
        </mxCell>
        <mxCell id="LFjVtD7tM92_0hhKICRg-131" value="&lt;b&gt;ED&lt;/b&gt;" style="rounded=0;whiteSpace=wrap;html=1;" vertex="1" parent="1">
          <mxGeometry x="2520" y="192.5" width="20" height="20" as="geometry" />
        </mxCell>
        <mxCell id="LFjVtD7tM92_0hhKICRg-132" value="&lt;b&gt;IR&lt;/b&gt;" style="rounded=0;whiteSpace=wrap;html=1;" vertex="1" parent="1">
          <mxGeometry x="2720" y="252.5" width="20" height="20" as="geometry" />
        </mxCell>
        <mxCell id="LFjVtD7tM92_0hhKICRg-133" value="i::100" style="shape=offPageConnector;whiteSpace=wrap;html=1;" vertex="1" parent="1">
          <mxGeometry x="2830" y="202.5" width="40" height="20" as="geometry" />
        </mxCell>
        <mxCell id="LFjVtD7tM92_0hhKICRg-134" style="edgeStyle=orthogonalEdgeStyle;rounded=0;orthogonalLoop=1;jettySize=auto;html=1;exitX=0;exitY=0;exitDx=0;exitDy=0;entryX=1;entryY=0;entryDx=0;entryDy=0;endArrow=ERoneToMany;endFill=0;" edge="1" parent="1" target="LFjVtD7tM92_0hhKICRg-133">
          <mxGeometry relative="1" as="geometry">
            <mxPoint x="2865" y="202.5" as="targetPoint" />
            <Array as="points" />
            <mxPoint x="2850" y="202.5" as="sourcePoint" />
          </mxGeometry>
        </mxCell>
        <mxCell id="LFjVtD7tM92_0hhKICRg-135" value="" style="group" vertex="1" connectable="0" parent="1">
          <mxGeometry x="2620" y="202.5" width="50" height="20" as="geometry" />
        </mxCell>
        <mxCell id="LFjVtD7tM92_0hhKICRg-136" value="i:dt:e" style="shape=offPageConnector;whiteSpace=wrap;html=1;" vertex="1" parent="LFjVtD7tM92_0hhKICRg-135">
          <mxGeometry y="-10" width="30" height="20" as="geometry" />
        </mxCell>
        <mxCell id="LFjVtD7tM92_0hhKICRg-137" value="&lt;b&gt;CA&lt;/b&gt;" style="shape=offPageConnector;whiteSpace=wrap;html=1;direction=north;size=0.25;" vertex="1" parent="1">
          <mxGeometry x="2620" y="252.5" width="30" height="20" as="geometry" />
        </mxCell>
        <mxCell id="LFjVtD7tM92_0hhKICRg-138" value="" style="group" vertex="1" connectable="0" parent="1">
          <mxGeometry x="2420" y="262.5" width="40" height="20" as="geometry" />
        </mxCell>
        <mxCell id="LFjVtD7tM92_0hhKICRg-139" value="s::e" style="shape=offPageConnector;whiteSpace=wrap;html=1;" vertex="1" parent="LFjVtD7tM92_0hhKICRg-138">
          <mxGeometry width="20" height="20" as="geometry" />
        </mxCell>
        <mxCell id="LFjVtD7tM92_0hhKICRg-140" style="edgeStyle=orthogonalEdgeStyle;rounded=0;orthogonalLoop=1;jettySize=auto;html=1;exitX=0;exitY=0;exitDx=0;exitDy=0;entryX=0.75;entryY=0;entryDx=0;entryDy=0;startArrow=baseDash;startFill=0;" edge="1" parent="LFjVtD7tM92_0hhKICRg-138">
          <mxGeometry relative="1" as="geometry">
            <mxPoint x="22.5" as="targetPoint" />
            <Array as="points" />
            <mxPoint as="sourcePoint" />
          </mxGeometry>
        </mxCell>
        <mxCell id="LFjVtD7tM92_0hhKICRg-141" value="new voltage" style="edgeStyle=orthogonalEdgeStyle;rounded=0;orthogonalLoop=1;jettySize=auto;html=1;exitX=0.5;exitY=0;exitDx=0;exitDy=0;entryX=0;entryY=0.5;entryDx=0;entryDy=0;startArrow=none;startFill=0;" edge="1" parent="1" source="LFjVtD7tM92_0hhKICRg-122" target="LFjVtD7tM92_0hhKICRg-125">
          <mxGeometry x="-0.0667" relative="1" as="geometry">
            <mxPoint x="2400" y="-20" as="sourcePoint" />
            <mxPoint x="2370" y="60" as="targetPoint" />
            <mxPoint as="offset" />
          </mxGeometry>
        </mxCell>
        <mxCell id="LFjVtD7tM92_0hhKICRg-142" value="new current (r)" style="edgeStyle=orthogonalEdgeStyle;rounded=0;orthogonalLoop=1;jettySize=auto;html=1;exitX=0.5;exitY=0;exitDx=0;exitDy=0;startArrow=classic;startFill=1;entryX=1;entryY=0.5;entryDx=0;entryDy=0;endArrow=none;endFill=0;" edge="1" parent="1" source="LFjVtD7tM92_0hhKICRg-124" target="LFjVtD7tM92_0hhKICRg-125">
          <mxGeometry relative="1" as="geometry">
            <mxPoint x="2820" y="-15" as="sourcePoint" />
            <mxPoint x="2750" y="115" as="targetPoint" />
          </mxGeometry>
        </mxCell>
        <mxCell id="LFjVtD7tM92_0hhKICRg-143" value="dough put in" style="edgeStyle=orthogonalEdgeStyle;rounded=0;orthogonalLoop=1;jettySize=auto;html=1;exitX=0.5;exitY=1;exitDx=0;exitDy=0;entryX=0;entryY=0.5;entryDx=0;entryDy=0;startArrow=none;startFill=0;" edge="1" parent="1" source="LFjVtD7tM92_0hhKICRg-123" target="LFjVtD7tM92_0hhKICRg-126">
          <mxGeometry x="-0.1667" relative="1" as="geometry">
            <mxPoint x="2484.75" y="462.5" as="sourcePoint" />
            <mxPoint x="2554.75" y="402.5" as="targetPoint" />
            <mxPoint as="offset" />
          </mxGeometry>
        </mxCell>
        <mxCell id="LFjVtD7tM92_0hhKICRg-144" value="&lt;span style=&quot;border: 0px; margin: 0px; padding: 0px; outline: 0px; vertical-align: baseline; background-image: initial; background-position: 0px 0px; background-size: initial; background-repeat: initial; background-attachment: initial; background-origin: initial; background-clip: initial; text-align: justify;&quot;&gt;ready for dough (r)&lt;/span&gt;" style="edgeStyle=orthogonalEdgeStyle;rounded=0;orthogonalLoop=1;jettySize=auto;html=1;exitX=0.5;exitY=0;exitDx=0;exitDy=0;entryX=0;entryY=1;entryDx=0;entryDy=0;startArrow=none;startFill=0;" edge="1" parent="1" source="LFjVtD7tM92_0hhKICRg-126" target="LFjVtD7tM92_0hhKICRg-137">
          <mxGeometry x="-0.1111" relative="1" as="geometry">
            <mxPoint x="2490" y="332.5" as="sourcePoint" />
            <mxPoint x="2580" y="362.5" as="targetPoint" />
            <mxPoint as="offset" />
          </mxGeometry>
        </mxCell>
        <mxCell id="LFjVtD7tM92_0hhKICRg-145" value="&lt;span style=&quot;border: 0px; margin: 0px; padding: 0px; outline: 0px; vertical-align: baseline; background-image: initial; background-position: 0px 0px; background-size: initial; background-repeat: initial; background-attachment: initial; background-origin: initial; background-clip: initial; text-align: justify;&quot;&gt;bread ready&lt;br&gt;&lt;/span&gt;" style="edgeStyle=orthogonalEdgeStyle;rounded=0;orthogonalLoop=1;jettySize=auto;html=1;exitX=0.5;exitY=0;exitDx=0;exitDy=0;entryX=0.25;entryY=1;entryDx=0;entryDy=0;startArrow=classic;startFill=1;endArrow=none;endFill=0;" edge="1" parent="1" source="LFjVtD7tM92_0hhKICRg-127" target="LFjVtD7tM92_0hhKICRg-132">
          <mxGeometry x="0.1136" relative="1" as="geometry">
            <mxPoint x="2664.75" y="352.5" as="sourcePoint" />
            <mxPoint x="2694.75" y="292.5" as="targetPoint" />
            <mxPoint as="offset" />
          </mxGeometry>
        </mxCell>
        <mxCell id="LFjVtD7tM92_0hhKICRg-146" value="&lt;span style=&quot;border: 0px; margin: 0px; padding: 0px; outline: 0px; vertical-align: baseline; background-image: initial; background-position: 0px 0px; background-size: initial; background-repeat: initial; background-attachment: initial; background-origin: initial; background-clip: initial; text-align: justify;&quot;&gt;bread&lt;br&gt;removed (r)&lt;br&gt;&lt;/span&gt;" style="edgeStyle=orthogonalEdgeStyle;rounded=0;orthogonalLoop=1;jettySize=auto;html=1;entryX=1;entryY=0.5;entryDx=0;entryDy=0;startArrow=classic;startFill=1;exitX=0.5;exitY=1;exitDx=0;exitDy=0;endArrow=none;endFill=0;" edge="1" parent="1" source="LFjVtD7tM92_0hhKICRg-128" target="LFjVtD7tM92_0hhKICRg-127">
          <mxGeometry x="0.1111" relative="1" as="geometry">
            <mxPoint x="2920" y="323.5" as="sourcePoint" />
            <mxPoint x="2720" y="272.5" as="targetPoint" />
            <mxPoint as="offset" />
          </mxGeometry>
        </mxCell>
        <mxCell id="LFjVtD7tM92_0hhKICRg-147" value="0::e" style="shape=offPageConnector;whiteSpace=wrap;html=1;" vertex="1" parent="1">
          <mxGeometry x="2420" y="152.5" width="20" height="20" as="geometry" />
        </mxCell>
        <mxCell id="LFjVtD7tM92_0hhKICRg-148" value="" style="rounded=0;whiteSpace=wrap;html=1;fillColor=none;strokeColor=#FF1100;strokeWidth=3;" vertex="1" parent="1">
          <mxGeometry x="2615" y="182.5" width="135" height="100" as="geometry" />
        </mxCell>
        <mxCell id="LFjVtD7tM92_0hhKICRg-149" value="&lt;font style=&quot;font-size: 14px;&quot;&gt;&lt;b&gt;Failure Scenario:&lt;/b&gt;&lt;/font&gt;&lt;div&gt;&lt;b style=&quot;font-size: 14px;&quot;&gt;&amp;nbsp;Mechanical conveyor stuck,&lt;/b&gt;&lt;div&gt;&lt;span style=&quot;font-size: 14px;&quot;&gt;&lt;b&gt;&lt;font color=&quot;#ff1100&quot;&gt;Dough likely to burn&lt;/font&gt;&lt;/b&gt;&lt;/span&gt;&lt;/div&gt;&lt;/div&gt;" style="text;html=1;align=center;verticalAlign=middle;whiteSpace=wrap;rounded=0;fontColor=#999999;" vertex="1" parent="1">
          <mxGeometry x="2690" y="132.5" width="220" height="45" as="geometry" />
        </mxCell>
        <mxCell id="LFjVtD7tM92_0hhKICRg-150" value="&lt;font&gt;&lt;span style=&quot;font-size: 14px;&quot;&gt;&lt;b&gt;Mechanical resistance causes adverse current draw&lt;/b&gt;&lt;/span&gt;&lt;/font&gt;" style="text;html=1;align=center;verticalAlign=middle;whiteSpace=wrap;rounded=0;fontColor=#999999;" vertex="1" parent="1">
          <mxGeometry x="2680" y="52.5" width="210" height="45" as="geometry" />
        </mxCell>
        <mxCell id="LFjVtD7tM92_0hhKICRg-151" value="" style="endArrow=classic;html=1;rounded=0;strokeWidth=3;strokeColor=#999999;fontColor=#999999;" edge="1" parent="1" source="LFjVtD7tM92_0hhKICRg-152">
          <mxGeometry width="50" height="50" relative="1" as="geometry">
            <mxPoint x="2560" y="422.5" as="sourcePoint" />
            <mxPoint x="2599.75" y="402.5" as="targetPoint" />
          </mxGeometry>
        </mxCell>
        <mxCell id="LFjVtD7tM92_0hhKICRg-152" value="&lt;font style=&quot;font-size: 14px;&quot;&gt;&lt;b&gt;Dough not moved in&lt;/b&gt;&lt;/font&gt;" style="text;html=1;align=center;verticalAlign=middle;whiteSpace=wrap;rounded=0;fontColor=#999999;" vertex="1" parent="1">
          <mxGeometry x="2380" y="382.5" width="160" height="45" as="geometry" />
        </mxCell>
        <mxCell id="LFjVtD7tM92_0hhKICRg-153" value="&lt;font style=&quot;font-size: 14px;&quot;&gt;&lt;b&gt;Dough not moved out&lt;/b&gt;&lt;/font&gt;" style="text;html=1;align=center;verticalAlign=middle;whiteSpace=wrap;rounded=0;fontColor=#999999;" vertex="1" parent="1">
          <mxGeometry x="2862.5" y="372.5" width="160" height="45" as="geometry" />
        </mxCell>
        <mxCell id="LFjVtD7tM92_0hhKICRg-154" value="" style="endArrow=classic;html=1;rounded=0;strokeWidth=3;strokeColor=#999999;fontColor=#999999;" edge="1" parent="1" target="LFjVtD7tM92_0hhKICRg-127">
          <mxGeometry width="50" height="50" relative="1" as="geometry">
            <mxPoint x="2870" y="392.5" as="sourcePoint" />
            <mxPoint x="2780" y="492.5" as="targetPoint" />
          </mxGeometry>
        </mxCell>
        <mxCell id="LFjVtD7tM92_0hhKICRg-155" value="" style="rounded=0;whiteSpace=wrap;html=1;fillColor=none;strokeColor=#FF1100;strokeWidth=3;" vertex="1" parent="1">
          <mxGeometry x="2822.5" y="192.5" width="135" height="90" as="geometry" />
        </mxCell>
        <mxCell id="LFjVtD7tM92_0hhKICRg-156" value="" style="rounded=0;whiteSpace=wrap;html=1;fillColor=none;strokeColor=#FF1100;strokeWidth=3;" vertex="1" parent="1">
          <mxGeometry x="2412.5" y="252.5" width="135" height="80" as="geometry" />
        </mxCell>
        <mxCell id="LFjVtD7tM92_0hhKICRg-157" value="" style="rounded=0;whiteSpace=wrap;html=1;fillColor=none;strokeColor=#FF1100;strokeWidth=3;" vertex="1" parent="1">
          <mxGeometry x="2412.5" y="142.5" width="135" height="80" as="geometry" />
        </mxCell>
        <mxCell id="LFjVtD7tM92_0hhKICRg-158" value="&lt;font color=&quot;#ff1100&quot;&gt;&lt;span style=&quot;font-size: 14px;&quot;&gt;&lt;b&gt;Potential to blow circuit&lt;/b&gt;&lt;/span&gt;&lt;/font&gt;" style="text;html=1;align=center;verticalAlign=middle;whiteSpace=wrap;rounded=0;" vertex="1" parent="1">
          <mxGeometry x="2240" y="160" width="160" height="45" as="geometry" />
        </mxCell>
        <mxCell id="LFjVtD7tM92_0hhKICRg-159" value="&lt;font color=&quot;#ff1100&quot;&gt;&lt;span style=&quot;font-size: 14px;&quot;&gt;&lt;b&gt;Dough production blocked, could burst storage or conveyor&lt;/b&gt;&lt;/span&gt;&lt;/font&gt;" style="text;html=1;align=center;verticalAlign=middle;whiteSpace=wrap;rounded=0;" vertex="1" parent="1">
          <mxGeometry x="2230" y="277.5" width="160" height="45" as="geometry" />
        </mxCell>
        <mxCell id="LFjVtD7tM92_0hhKICRg-160" value="&lt;font color=&quot;#ff1100&quot;&gt;&lt;span style=&quot;font-size: 14px;&quot;&gt;&lt;b&gt;No bread exported&lt;/b&gt;&lt;/span&gt;&lt;/font&gt;" style="text;html=1;align=center;verticalAlign=middle;whiteSpace=wrap;rounded=0;" vertex="1" parent="1">
          <mxGeometry x="2970" y="212.5" width="130" height="45" as="geometry" />
        </mxCell>
        <mxCell id="LFjVtD7tM92_0hhKICRg-161" value="" style="endArrow=classic;html=1;rounded=0;strokeWidth=3;strokeColor=#999999;fontColor=#999999;" edge="1" parent="1">
          <mxGeometry width="50" height="50" relative="1" as="geometry">
            <mxPoint x="3670" y="90" as="sourcePoint" />
            <mxPoint x="3627.5" y="90" as="targetPoint" />
          </mxGeometry>
        </mxCell>
        <mxCell id="LFjVtD7tM92_0hhKICRg-162" value="Import EE&lt;div&gt;&amp;lt;Physical&amp;gt;&lt;/div&gt;" style="rounded=0;whiteSpace=wrap;html=1;" vertex="1" parent="1">
          <mxGeometry x="3410" y="160" width="120" height="60" as="geometry" />
        </mxCell>
        <mxCell id="LFjVtD7tM92_0hhKICRg-163" value="Import Dough&lt;div&gt;&amp;lt;Human&amp;gt;&lt;/div&gt;" style="rounded=0;whiteSpace=wrap;html=1;" vertex="1" parent="1">
          <mxGeometry x="3410" y="270" width="120" height="60" as="geometry" />
        </mxCell>
        <mxCell id="LFjVtD7tM92_0hhKICRg-164" value="Bake Bread from Dough&lt;div&gt;&amp;lt;Physical, Control&amp;gt;&lt;/div&gt;" style="rounded=0;whiteSpace=wrap;html=1;" vertex="1" parent="1">
          <mxGeometry x="3610" y="200" width="120" height="80" as="geometry" />
        </mxCell>
        <mxCell id="LFjVtD7tM92_0hhKICRg-165" value="EE_1&lt;div&gt;&amp;lt;Power&amp;gt;&lt;/div&gt;" style="ellipse;whiteSpace=wrap;html=1;aspect=fixed;" vertex="1" parent="1">
          <mxGeometry x="3550" y="70" width="70" height="70" as="geometry" />
        </mxCell>
        <mxCell id="LFjVtD7tM92_0hhKICRg-166" value="Dough Input&lt;div&gt;&amp;lt;Dough&amp;gt;&lt;/div&gt;" style="ellipse;whiteSpace=wrap;html=1;aspect=fixed;" vertex="1" parent="1">
          <mxGeometry x="3570" y="330" width="80" height="80" as="geometry" />
        </mxCell>
        <mxCell id="LFjVtD7tM92_0hhKICRg-167" value="Bread Output&lt;div&gt;&amp;lt;Bread&amp;gt;&lt;/div&gt;" style="ellipse;whiteSpace=wrap;html=1;aspect=fixed;" vertex="1" parent="1">
          <mxGeometry x="3730" y="330" width="80" height="80" as="geometry" />
        </mxCell>
        <mxCell id="LFjVtD7tM92_0hhKICRg-168" value="Export Bread&lt;div&gt;&amp;lt;Human&amp;gt;&lt;/div&gt;" style="rounded=0;whiteSpace=wrap;html=1;" vertex="1" parent="1">
          <mxGeometry x="3820" y="210" width="120" height="60" as="geometry" />
        </mxCell>
        <mxCell id="LFjVtD7tM92_0hhKICRg-169" value="&lt;b&gt;EV&lt;/b&gt;" style="rounded=0;whiteSpace=wrap;html=1;" vertex="1" parent="1">
          <mxGeometry x="3500" y="310" width="30" height="20" as="geometry" />
        </mxCell>
        <mxCell id="LFjVtD7tM92_0hhKICRg-170" value="&lt;b&gt;EV&lt;/b&gt;" style="rounded=0;whiteSpace=wrap;html=1;" vertex="1" parent="1">
          <mxGeometry x="3910" y="250" width="30" height="20" as="geometry" />
        </mxCell>
        <mxCell id="LFjVtD7tM92_0hhKICRg-171" value="&lt;b&gt;ED&lt;/b&gt;" style="rounded=0;whiteSpace=wrap;html=1;" vertex="1" parent="1">
          <mxGeometry x="3510" y="200" width="20" height="20" as="geometry" />
        </mxCell>
        <mxCell id="LFjVtD7tM92_0hhKICRg-172" value="&lt;b&gt;IR&lt;/b&gt;" style="rounded=0;whiteSpace=wrap;html=1;" vertex="1" parent="1">
          <mxGeometry x="3710" y="260" width="20" height="20" as="geometry" />
        </mxCell>
        <mxCell id="LFjVtD7tM92_0hhKICRg-173" value="i::100" style="shape=offPageConnector;whiteSpace=wrap;html=1;" vertex="1" parent="1">
          <mxGeometry x="3820" y="210" width="40" height="20" as="geometry" />
        </mxCell>
        <mxCell id="LFjVtD7tM92_0hhKICRg-174" style="edgeStyle=orthogonalEdgeStyle;rounded=0;orthogonalLoop=1;jettySize=auto;html=1;exitX=0;exitY=0;exitDx=0;exitDy=0;entryX=1;entryY=0;entryDx=0;entryDy=0;endArrow=ERoneToMany;endFill=0;" edge="1" parent="1" target="LFjVtD7tM92_0hhKICRg-173">
          <mxGeometry relative="1" as="geometry">
            <mxPoint x="3855" y="210" as="targetPoint" />
            <Array as="points" />
            <mxPoint x="3840" y="210" as="sourcePoint" />
          </mxGeometry>
        </mxCell>
        <mxCell id="LFjVtD7tM92_0hhKICRg-175" value="" style="group" vertex="1" connectable="0" parent="1">
          <mxGeometry x="3610" y="210" width="50" height="20" as="geometry" />
        </mxCell>
        <mxCell id="LFjVtD7tM92_0hhKICRg-176" value="i:dt:e" style="shape=offPageConnector;whiteSpace=wrap;html=1;" vertex="1" parent="LFjVtD7tM92_0hhKICRg-175">
          <mxGeometry y="-10" width="30" height="20" as="geometry" />
        </mxCell>
        <mxCell id="LFjVtD7tM92_0hhKICRg-177" value="&lt;b&gt;CA&lt;/b&gt;" style="shape=offPageConnector;whiteSpace=wrap;html=1;direction=north;size=0.25;" vertex="1" parent="1">
          <mxGeometry x="3610" y="260" width="30" height="20" as="geometry" />
        </mxCell>
        <mxCell id="LFjVtD7tM92_0hhKICRg-178" value="" style="group" vertex="1" connectable="0" parent="1">
          <mxGeometry x="3410" y="270" width="40" height="20" as="geometry" />
        </mxCell>
        <mxCell id="LFjVtD7tM92_0hhKICRg-179" value="s::e" style="shape=offPageConnector;whiteSpace=wrap;html=1;" vertex="1" parent="LFjVtD7tM92_0hhKICRg-178">
          <mxGeometry width="20" height="20" as="geometry" />
        </mxCell>
        <mxCell id="LFjVtD7tM92_0hhKICRg-180" style="edgeStyle=orthogonalEdgeStyle;rounded=0;orthogonalLoop=1;jettySize=auto;html=1;exitX=0;exitY=0;exitDx=0;exitDy=0;entryX=0.75;entryY=0;entryDx=0;entryDy=0;startArrow=baseDash;startFill=0;" edge="1" parent="LFjVtD7tM92_0hhKICRg-178">
          <mxGeometry relative="1" as="geometry">
            <mxPoint x="22.5" as="targetPoint" />
            <Array as="points" />
            <mxPoint as="sourcePoint" />
          </mxGeometry>
        </mxCell>
        <mxCell id="LFjVtD7tM92_0hhKICRg-181" value="new voltage" style="edgeStyle=orthogonalEdgeStyle;rounded=0;orthogonalLoop=1;jettySize=auto;html=1;exitX=0.5;exitY=0;exitDx=0;exitDy=0;entryX=0;entryY=0.5;entryDx=0;entryDy=0;startArrow=none;startFill=0;" edge="1" parent="1" source="LFjVtD7tM92_0hhKICRg-162" target="LFjVtD7tM92_0hhKICRg-165">
          <mxGeometry x="-0.0667" relative="1" as="geometry">
            <mxPoint x="3390" y="-12.5" as="sourcePoint" />
            <mxPoint x="3360" y="67.5" as="targetPoint" />
            <mxPoint as="offset" />
          </mxGeometry>
        </mxCell>
        <mxCell id="LFjVtD7tM92_0hhKICRg-182" value="new current (r)" style="edgeStyle=orthogonalEdgeStyle;rounded=0;orthogonalLoop=1;jettySize=auto;html=1;exitX=0.5;exitY=0;exitDx=0;exitDy=0;startArrow=classic;startFill=1;entryX=1;entryY=0.5;entryDx=0;entryDy=0;endArrow=none;endFill=0;" edge="1" parent="1" source="LFjVtD7tM92_0hhKICRg-164" target="LFjVtD7tM92_0hhKICRg-165">
          <mxGeometry relative="1" as="geometry">
            <mxPoint x="3810" y="-7.5" as="sourcePoint" />
            <mxPoint x="3740" y="122.5" as="targetPoint" />
          </mxGeometry>
        </mxCell>
        <mxCell id="LFjVtD7tM92_0hhKICRg-183" value="dough put in" style="edgeStyle=orthogonalEdgeStyle;rounded=0;orthogonalLoop=1;jettySize=auto;html=1;exitX=0.5;exitY=1;exitDx=0;exitDy=0;entryX=0;entryY=0.5;entryDx=0;entryDy=0;startArrow=none;startFill=0;" edge="1" parent="1" source="LFjVtD7tM92_0hhKICRg-163" target="LFjVtD7tM92_0hhKICRg-166">
          <mxGeometry x="-0.1667" relative="1" as="geometry">
            <mxPoint x="3474.75" y="470" as="sourcePoint" />
            <mxPoint x="3544.75" y="410" as="targetPoint" />
            <mxPoint as="offset" />
          </mxGeometry>
        </mxCell>
        <mxCell id="LFjVtD7tM92_0hhKICRg-184" value="&lt;span style=&quot;border: 0px; margin: 0px; padding: 0px; outline: 0px; vertical-align: baseline; background-image: initial; background-position: 0px 0px; background-size: initial; background-repeat: initial; background-attachment: initial; background-origin: initial; background-clip: initial; text-align: justify;&quot;&gt;ready for dough (r)&lt;/span&gt;" style="edgeStyle=orthogonalEdgeStyle;rounded=0;orthogonalLoop=1;jettySize=auto;html=1;exitX=0.5;exitY=0;exitDx=0;exitDy=0;entryX=0;entryY=1;entryDx=0;entryDy=0;startArrow=none;startFill=0;" edge="1" parent="1" source="LFjVtD7tM92_0hhKICRg-166" target="LFjVtD7tM92_0hhKICRg-177">
          <mxGeometry x="-0.1111" relative="1" as="geometry">
            <mxPoint x="3480" y="340" as="sourcePoint" />
            <mxPoint x="3570" y="370" as="targetPoint" />
            <mxPoint as="offset" />
          </mxGeometry>
        </mxCell>
        <mxCell id="LFjVtD7tM92_0hhKICRg-185" value="&lt;span style=&quot;border: 0px; margin: 0px; padding: 0px; outline: 0px; vertical-align: baseline; background-image: initial; background-position: 0px 0px; background-size: initial; background-repeat: initial; background-attachment: initial; background-origin: initial; background-clip: initial; text-align: justify;&quot;&gt;bread ready&lt;br&gt;&lt;/span&gt;" style="edgeStyle=orthogonalEdgeStyle;rounded=0;orthogonalLoop=1;jettySize=auto;html=1;exitX=0.5;exitY=0;exitDx=0;exitDy=0;entryX=0.25;entryY=1;entryDx=0;entryDy=0;startArrow=classic;startFill=1;endArrow=none;endFill=0;" edge="1" parent="1" source="LFjVtD7tM92_0hhKICRg-167" target="LFjVtD7tM92_0hhKICRg-172">
          <mxGeometry x="0.1136" relative="1" as="geometry">
            <mxPoint x="3654.75" y="360" as="sourcePoint" />
            <mxPoint x="3684.75" y="300" as="targetPoint" />
            <mxPoint as="offset" />
          </mxGeometry>
        </mxCell>
        <mxCell id="LFjVtD7tM92_0hhKICRg-186" value="&lt;span style=&quot;border: 0px; margin: 0px; padding: 0px; outline: 0px; vertical-align: baseline; background-image: initial; background-position: 0px 0px; background-size: initial; background-repeat: initial; background-attachment: initial; background-origin: initial; background-clip: initial; text-align: justify;&quot;&gt;bread&lt;br&gt;removed (r)&lt;br&gt;&lt;/span&gt;" style="edgeStyle=orthogonalEdgeStyle;rounded=0;orthogonalLoop=1;jettySize=auto;html=1;entryX=1;entryY=0.5;entryDx=0;entryDy=0;startArrow=classic;startFill=1;exitX=0.5;exitY=1;exitDx=0;exitDy=0;endArrow=none;endFill=0;" edge="1" parent="1" source="LFjVtD7tM92_0hhKICRg-168" target="LFjVtD7tM92_0hhKICRg-167">
          <mxGeometry x="0.1111" relative="1" as="geometry">
            <mxPoint x="3910" y="331" as="sourcePoint" />
            <mxPoint x="3710" y="280" as="targetPoint" />
            <mxPoint as="offset" />
          </mxGeometry>
        </mxCell>
        <mxCell id="LFjVtD7tM92_0hhKICRg-187" value="0::e" style="shape=offPageConnector;whiteSpace=wrap;html=1;" vertex="1" parent="1">
          <mxGeometry x="3410" y="160" width="20" height="20" as="geometry" />
        </mxCell>
        <mxCell id="LFjVtD7tM92_0hhKICRg-188" value="" style="rounded=0;whiteSpace=wrap;html=1;fillColor=none;strokeColor=#FF1100;strokeWidth=3;" vertex="1" parent="1">
          <mxGeometry x="3605" y="190" width="135" height="100" as="geometry" />
        </mxCell>
        <mxCell id="LFjVtD7tM92_0hhKICRg-189" value="&lt;font style=&quot;font-size: 14px;&quot;&gt;&lt;b&gt;Failure Scenario:&lt;/b&gt;&lt;/font&gt;&lt;div&gt;&lt;b style=&quot;font-size: 14px;&quot;&gt;&amp;nbsp;Mechanical conveyor stuck,&lt;/b&gt;&lt;div&gt;&lt;span style=&quot;font-size: 14px;&quot;&gt;&lt;b&gt;Dough likely to burn&lt;/b&gt;&lt;/span&gt;&lt;/div&gt;&lt;/div&gt;&lt;div&gt;&lt;span style=&quot;font-size: 14px;&quot;&gt;&lt;b&gt;&lt;font color=&quot;#ff1100&quot;&gt;Elements turned off due to no power&lt;/font&gt;&lt;/b&gt;&lt;/span&gt;&lt;/div&gt;" style="text;html=1;align=center;verticalAlign=middle;whiteSpace=wrap;rounded=0;fontColor=#999999;" vertex="1" parent="1">
          <mxGeometry x="3680" y="110" width="270" height="75" as="geometry" />
        </mxCell>
        <mxCell id="LFjVtD7tM92_0hhKICRg-190" value="&lt;font&gt;&lt;span style=&quot;font-size: 14px;&quot;&gt;&lt;b&gt;Mechanical resistance causes adverse current draw&lt;/b&gt;&lt;/span&gt;&lt;/font&gt;" style="text;html=1;align=center;verticalAlign=middle;whiteSpace=wrap;rounded=0;fontColor=#999999;" vertex="1" parent="1">
          <mxGeometry x="3670" y="60" width="210" height="45" as="geometry" />
        </mxCell>
        <mxCell id="LFjVtD7tM92_0hhKICRg-191" value="" style="endArrow=classic;html=1;rounded=0;strokeWidth=3;strokeColor=#999999;fontColor=#999999;" edge="1" parent="1" source="LFjVtD7tM92_0hhKICRg-192">
          <mxGeometry width="50" height="50" relative="1" as="geometry">
            <mxPoint x="3550" y="430" as="sourcePoint" />
            <mxPoint x="3589.75" y="410" as="targetPoint" />
          </mxGeometry>
        </mxCell>
        <mxCell id="LFjVtD7tM92_0hhKICRg-192" value="&lt;font style=&quot;font-size: 14px;&quot;&gt;&lt;b&gt;Dough not moved in&lt;/b&gt;&lt;/font&gt;" style="text;html=1;align=center;verticalAlign=middle;whiteSpace=wrap;rounded=0;fontColor=#999999;" vertex="1" parent="1">
          <mxGeometry x="3370" y="390" width="160" height="45" as="geometry" />
        </mxCell>
        <mxCell id="LFjVtD7tM92_0hhKICRg-193" value="&lt;font style=&quot;font-size: 14px;&quot;&gt;&lt;b&gt;Dough not moved out&lt;/b&gt;&lt;/font&gt;" style="text;html=1;align=center;verticalAlign=middle;whiteSpace=wrap;rounded=0;fontColor=#999999;" vertex="1" parent="1">
          <mxGeometry x="3852.5" y="380" width="160" height="45" as="geometry" />
        </mxCell>
        <mxCell id="LFjVtD7tM92_0hhKICRg-194" value="" style="endArrow=classic;html=1;rounded=0;strokeWidth=3;strokeColor=#999999;fontColor=#999999;" edge="1" parent="1" target="LFjVtD7tM92_0hhKICRg-167">
          <mxGeometry width="50" height="50" relative="1" as="geometry">
            <mxPoint x="3860" y="400" as="sourcePoint" />
            <mxPoint x="3770" y="500" as="targetPoint" />
          </mxGeometry>
        </mxCell>
        <mxCell id="LFjVtD7tM92_0hhKICRg-195" value="" style="rounded=0;whiteSpace=wrap;html=1;fillColor=none;strokeColor=#999999;strokeWidth=3;" vertex="1" parent="1">
          <mxGeometry x="3812.5" y="200" width="135" height="90" as="geometry" />
        </mxCell>
        <mxCell id="LFjVtD7tM92_0hhKICRg-196" value="" style="rounded=0;whiteSpace=wrap;html=1;fillColor=none;strokeColor=#999999;strokeWidth=3;" vertex="1" parent="1">
          <mxGeometry x="3402.5" y="260" width="135" height="80" as="geometry" />
        </mxCell>
        <mxCell id="LFjVtD7tM92_0hhKICRg-197" value="" style="rounded=0;whiteSpace=wrap;html=1;fillColor=none;strokeColor=#999999;strokeWidth=3;" vertex="1" parent="1">
          <mxGeometry x="3402.5" y="150" width="135" height="80" as="geometry" />
        </mxCell>
        <mxCell id="LFjVtD7tM92_0hhKICRg-198" value="&lt;font&gt;&lt;span style=&quot;font-size: 14px;&quot;&gt;&lt;b&gt;Potential to blow circuit&lt;/b&gt;&lt;/span&gt;&lt;/font&gt;" style="text;html=1;align=center;verticalAlign=middle;whiteSpace=wrap;rounded=0;fontColor=#999999;" vertex="1" parent="1">
          <mxGeometry x="3230" y="167.5" width="160" height="45" as="geometry" />
        </mxCell>
        <mxCell id="LFjVtD7tM92_0hhKICRg-199" value="&lt;font&gt;&lt;span style=&quot;font-size: 14px;&quot;&gt;&lt;b&gt;Dough production blocked, could burst storage or conveyor&lt;/b&gt;&lt;/span&gt;&lt;/font&gt;" style="text;html=1;align=center;verticalAlign=middle;whiteSpace=wrap;rounded=0;fontColor=#999999;" vertex="1" parent="1">
          <mxGeometry x="3220" y="285" width="160" height="45" as="geometry" />
        </mxCell>
        <mxCell id="LFjVtD7tM92_0hhKICRg-200" value="&lt;font&gt;&lt;span style=&quot;font-size: 14px;&quot;&gt;&lt;b&gt;No bread exported&lt;/b&gt;&lt;/span&gt;&lt;/font&gt;" style="text;html=1;align=center;verticalAlign=middle;whiteSpace=wrap;rounded=0;fontColor=#999999;" vertex="1" parent="1">
          <mxGeometry x="3960" y="220" width="130" height="45" as="geometry" />
        </mxCell>
        <mxCell id="LFjVtD7tM92_0hhKICRg-201" value="&lt;font color=&quot;#ff1100&quot;&gt;&lt;span style=&quot;font-size: 14px;&quot;&gt;&lt;b&gt;If circuit is blown, voltage goes to zero&lt;/b&gt;&lt;/span&gt;&lt;/font&gt;" style="text;html=1;align=center;verticalAlign=middle;whiteSpace=wrap;rounded=0;" vertex="1" parent="1">
          <mxGeometry x="3320" y="30" width="160" height="45" as="geometry" />
        </mxCell>
        <mxCell id="LFjVtD7tM92_0hhKICRg-202" value="" style="endArrow=classic;html=1;rounded=0;strokeWidth=3;strokeColor=#FF1100;" edge="1" parent="1" target="LFjVtD7tM92_0hhKICRg-165">
          <mxGeometry width="50" height="50" relative="1" as="geometry">
            <mxPoint x="3477.5" y="62.5" as="sourcePoint" />
            <mxPoint x="3537.5" y="102.5" as="targetPoint" />
          </mxGeometry>
        </mxCell>
        <mxCell id="LFjVtD7tM92_0hhKICRg-203" value="&lt;b&gt;&lt;font style=&quot;font-size: 14px;&quot;&gt;Effects Analysis&lt;/font&gt;&lt;/b&gt;" style="text;html=1;align=center;verticalAlign=middle;whiteSpace=wrap;rounded=0;" vertex="1" parent="1">
          <mxGeometry x="880" y="22.5" width="60" height="30" as="geometry" />
        </mxCell>
        <mxCell id="LFjVtD7tM92_0hhKICRg-204" value="&lt;b&gt;&lt;font style=&quot;font-size: 14px;&quot;&gt;Causal&lt;/font&gt;&lt;/b&gt;&lt;div&gt;&lt;b&gt;&lt;font style=&quot;font-size: 14px;&quot;&gt;Analysis&lt;/font&gt;&lt;/b&gt;&lt;/div&gt;" style="text;html=1;align=center;verticalAlign=middle;whiteSpace=wrap;rounded=0;" vertex="1" parent="1">
          <mxGeometry x="880" y="580" width="60" height="30" as="geometry" />
        </mxCell>
        <mxCell id="LFjVtD7tM92_0hhKICRg-205" value="" style="endArrow=classic;html=1;rounded=0;strokeWidth=3;strokeColor=#FF1100;" edge="1" parent="1">
          <mxGeometry width="50" height="50" relative="1" as="geometry">
            <mxPoint x="1850" y="620" as="sourcePoint" />
            <mxPoint x="1807.5" y="620" as="targetPoint" />
          </mxGeometry>
        </mxCell>
        <mxCell id="LFjVtD7tM92_0hhKICRg-206" value="Import EE&lt;div&gt;&amp;lt;Physical&amp;gt;&lt;/div&gt;" style="rounded=0;whiteSpace=wrap;html=1;" vertex="1" parent="1">
          <mxGeometry x="1590" y="690" width="120" height="60" as="geometry" />
        </mxCell>
        <mxCell id="LFjVtD7tM92_0hhKICRg-207" value="Import Dough&lt;div&gt;&amp;lt;Human&amp;gt;&lt;/div&gt;" style="rounded=0;whiteSpace=wrap;html=1;" vertex="1" parent="1">
          <mxGeometry x="1590" y="800" width="120" height="60" as="geometry" />
        </mxCell>
        <mxCell id="LFjVtD7tM92_0hhKICRg-208" value="Bake Bread from Dough&lt;div&gt;&amp;lt;Physical, Control&amp;gt;&lt;/div&gt;" style="rounded=0;whiteSpace=wrap;html=1;" vertex="1" parent="1">
          <mxGeometry x="1790" y="730" width="120" height="80" as="geometry" />
        </mxCell>
        <mxCell id="LFjVtD7tM92_0hhKICRg-209" value="EE_1&lt;div&gt;&amp;lt;Power&amp;gt;&lt;/div&gt;" style="ellipse;whiteSpace=wrap;html=1;aspect=fixed;" vertex="1" parent="1">
          <mxGeometry x="1730" y="600" width="70" height="70" as="geometry" />
        </mxCell>
        <mxCell id="LFjVtD7tM92_0hhKICRg-210" value="Dough Input&lt;div&gt;&amp;lt;Dough&amp;gt;&lt;/div&gt;" style="ellipse;whiteSpace=wrap;html=1;aspect=fixed;" vertex="1" parent="1">
          <mxGeometry x="1750" y="860" width="80" height="80" as="geometry" />
        </mxCell>
        <mxCell id="LFjVtD7tM92_0hhKICRg-211" value="Bread Output&lt;div&gt;&amp;lt;Bread&amp;gt;&lt;/div&gt;" style="ellipse;whiteSpace=wrap;html=1;aspect=fixed;" vertex="1" parent="1">
          <mxGeometry x="1910" y="860" width="80" height="80" as="geometry" />
        </mxCell>
        <mxCell id="LFjVtD7tM92_0hhKICRg-212" value="Export Bread&lt;div&gt;&amp;lt;Human&amp;gt;&lt;/div&gt;" style="rounded=0;whiteSpace=wrap;html=1;" vertex="1" parent="1">
          <mxGeometry x="2000" y="740" width="120" height="60" as="geometry" />
        </mxCell>
        <mxCell id="LFjVtD7tM92_0hhKICRg-213" value="&lt;b&gt;EV&lt;/b&gt;" style="rounded=0;whiteSpace=wrap;html=1;" vertex="1" parent="1">
          <mxGeometry x="1680" y="840" width="30" height="20" as="geometry" />
        </mxCell>
        <mxCell id="LFjVtD7tM92_0hhKICRg-214" value="&lt;b&gt;EV&lt;/b&gt;" style="rounded=0;whiteSpace=wrap;html=1;" vertex="1" parent="1">
          <mxGeometry x="2090" y="780" width="30" height="20" as="geometry" />
        </mxCell>
        <mxCell id="LFjVtD7tM92_0hhKICRg-215" value="&lt;b&gt;ED&lt;/b&gt;" style="rounded=0;whiteSpace=wrap;html=1;" vertex="1" parent="1">
          <mxGeometry x="1690" y="730" width="20" height="20" as="geometry" />
        </mxCell>
        <mxCell id="LFjVtD7tM92_0hhKICRg-216" value="&lt;b&gt;IR&lt;/b&gt;" style="rounded=0;whiteSpace=wrap;html=1;" vertex="1" parent="1">
          <mxGeometry x="1890" y="790" width="20" height="20" as="geometry" />
        </mxCell>
        <mxCell id="LFjVtD7tM92_0hhKICRg-217" value="i::100" style="shape=offPageConnector;whiteSpace=wrap;html=1;" vertex="1" parent="1">
          <mxGeometry x="2000" y="740" width="40" height="20" as="geometry" />
        </mxCell>
        <mxCell id="LFjVtD7tM92_0hhKICRg-218" style="edgeStyle=orthogonalEdgeStyle;rounded=0;orthogonalLoop=1;jettySize=auto;html=1;exitX=0;exitY=0;exitDx=0;exitDy=0;entryX=1;entryY=0;entryDx=0;entryDy=0;endArrow=ERoneToMany;endFill=0;" edge="1" parent="1" target="LFjVtD7tM92_0hhKICRg-217">
          <mxGeometry relative="1" as="geometry">
            <mxPoint x="2035" y="740" as="targetPoint" />
            <Array as="points" />
            <mxPoint x="2020" y="740" as="sourcePoint" />
          </mxGeometry>
        </mxCell>
        <mxCell id="LFjVtD7tM92_0hhKICRg-219" value="" style="group" vertex="1" connectable="0" parent="1">
          <mxGeometry x="1790" y="740" width="50" height="20" as="geometry" />
        </mxCell>
        <mxCell id="LFjVtD7tM92_0hhKICRg-220" value="i:dt:e" style="shape=offPageConnector;whiteSpace=wrap;html=1;" vertex="1" parent="LFjVtD7tM92_0hhKICRg-219">
          <mxGeometry y="-10" width="30" height="20" as="geometry" />
        </mxCell>
        <mxCell id="LFjVtD7tM92_0hhKICRg-221" value="&lt;b&gt;CA&lt;/b&gt;" style="shape=offPageConnector;whiteSpace=wrap;html=1;direction=north;size=0.25;" vertex="1" parent="1">
          <mxGeometry x="1790" y="790" width="30" height="20" as="geometry" />
        </mxCell>
        <mxCell id="LFjVtD7tM92_0hhKICRg-222" value="" style="group" vertex="1" connectable="0" parent="1">
          <mxGeometry x="1590" y="800" width="40" height="20" as="geometry" />
        </mxCell>
        <mxCell id="LFjVtD7tM92_0hhKICRg-223" value="s::e" style="shape=offPageConnector;whiteSpace=wrap;html=1;" vertex="1" parent="LFjVtD7tM92_0hhKICRg-222">
          <mxGeometry width="20" height="20" as="geometry" />
        </mxCell>
        <mxCell id="LFjVtD7tM92_0hhKICRg-224" style="edgeStyle=orthogonalEdgeStyle;rounded=0;orthogonalLoop=1;jettySize=auto;html=1;exitX=0;exitY=0;exitDx=0;exitDy=0;entryX=0.75;entryY=0;entryDx=0;entryDy=0;startArrow=baseDash;startFill=0;" edge="1" parent="LFjVtD7tM92_0hhKICRg-222">
          <mxGeometry relative="1" as="geometry">
            <mxPoint x="22.5" as="targetPoint" />
            <Array as="points" />
            <mxPoint as="sourcePoint" />
          </mxGeometry>
        </mxCell>
        <mxCell id="LFjVtD7tM92_0hhKICRg-225" value="new voltage" style="edgeStyle=orthogonalEdgeStyle;rounded=0;orthogonalLoop=1;jettySize=auto;html=1;exitX=0.5;exitY=0;exitDx=0;exitDy=0;entryX=0;entryY=0.5;entryDx=0;entryDy=0;startArrow=none;startFill=0;" edge="1" parent="1" source="LFjVtD7tM92_0hhKICRg-206" target="LFjVtD7tM92_0hhKICRg-209">
          <mxGeometry x="-0.0667" relative="1" as="geometry">
            <mxPoint x="1570" y="517.5" as="sourcePoint" />
            <mxPoint x="1540" y="597.5" as="targetPoint" />
            <mxPoint as="offset" />
          </mxGeometry>
        </mxCell>
        <mxCell id="LFjVtD7tM92_0hhKICRg-226" value="new current (r)" style="edgeStyle=orthogonalEdgeStyle;rounded=0;orthogonalLoop=1;jettySize=auto;html=1;exitX=0.5;exitY=0;exitDx=0;exitDy=0;startArrow=classic;startFill=1;entryX=1;entryY=0.5;entryDx=0;entryDy=0;endArrow=none;endFill=0;" edge="1" parent="1" source="LFjVtD7tM92_0hhKICRg-208" target="LFjVtD7tM92_0hhKICRg-209">
          <mxGeometry relative="1" as="geometry">
            <mxPoint x="1990" y="522.5" as="sourcePoint" />
            <mxPoint x="1920" y="652.5" as="targetPoint" />
          </mxGeometry>
        </mxCell>
        <mxCell id="LFjVtD7tM92_0hhKICRg-227" value="dough put in" style="edgeStyle=orthogonalEdgeStyle;rounded=0;orthogonalLoop=1;jettySize=auto;html=1;exitX=0.5;exitY=1;exitDx=0;exitDy=0;entryX=0;entryY=0.5;entryDx=0;entryDy=0;startArrow=none;startFill=0;" edge="1" parent="1" source="LFjVtD7tM92_0hhKICRg-207" target="LFjVtD7tM92_0hhKICRg-210">
          <mxGeometry x="-0.1667" relative="1" as="geometry">
            <mxPoint x="1654.75" y="1000" as="sourcePoint" />
            <mxPoint x="1724.75" y="940" as="targetPoint" />
            <mxPoint as="offset" />
          </mxGeometry>
        </mxCell>
        <mxCell id="LFjVtD7tM92_0hhKICRg-228" value="&lt;span style=&quot;border: 0px; margin: 0px; padding: 0px; outline: 0px; vertical-align: baseline; background-image: initial; background-position: 0px 0px; background-size: initial; background-repeat: initial; background-attachment: initial; background-origin: initial; background-clip: initial; text-align: justify;&quot;&gt;ready for dough (r)&lt;/span&gt;" style="edgeStyle=orthogonalEdgeStyle;rounded=0;orthogonalLoop=1;jettySize=auto;html=1;exitX=0.5;exitY=0;exitDx=0;exitDy=0;entryX=0;entryY=1;entryDx=0;entryDy=0;startArrow=none;startFill=0;" edge="1" parent="1" source="LFjVtD7tM92_0hhKICRg-210" target="LFjVtD7tM92_0hhKICRg-221">
          <mxGeometry x="-0.1111" relative="1" as="geometry">
            <mxPoint x="1660" y="870" as="sourcePoint" />
            <mxPoint x="1750" y="900" as="targetPoint" />
            <mxPoint as="offset" />
          </mxGeometry>
        </mxCell>
        <mxCell id="LFjVtD7tM92_0hhKICRg-229" value="&lt;span style=&quot;border: 0px; margin: 0px; padding: 0px; outline: 0px; vertical-align: baseline; background-image: initial; background-position: 0px 0px; background-size: initial; background-repeat: initial; background-attachment: initial; background-origin: initial; background-clip: initial; text-align: justify;&quot;&gt;bread ready&lt;br&gt;&lt;/span&gt;" style="edgeStyle=orthogonalEdgeStyle;rounded=0;orthogonalLoop=1;jettySize=auto;html=1;exitX=0.5;exitY=0;exitDx=0;exitDy=0;entryX=0.25;entryY=1;entryDx=0;entryDy=0;startArrow=classic;startFill=1;endArrow=none;endFill=0;" edge="1" parent="1" source="LFjVtD7tM92_0hhKICRg-211" target="LFjVtD7tM92_0hhKICRg-216">
          <mxGeometry x="0.1136" relative="1" as="geometry">
            <mxPoint x="1834.75" y="890" as="sourcePoint" />
            <mxPoint x="1864.75" y="830" as="targetPoint" />
            <mxPoint as="offset" />
          </mxGeometry>
        </mxCell>
        <mxCell id="LFjVtD7tM92_0hhKICRg-230" value="&lt;span style=&quot;border: 0px; margin: 0px; padding: 0px; outline: 0px; vertical-align: baseline; background-image: initial; background-position: 0px 0px; background-size: initial; background-repeat: initial; background-attachment: initial; background-origin: initial; background-clip: initial; text-align: justify;&quot;&gt;bread&lt;br&gt;removed (r)&lt;br&gt;&lt;/span&gt;" style="edgeStyle=orthogonalEdgeStyle;rounded=0;orthogonalLoop=1;jettySize=auto;html=1;entryX=1;entryY=0.5;entryDx=0;entryDy=0;startArrow=classic;startFill=1;exitX=0.5;exitY=1;exitDx=0;exitDy=0;endArrow=none;endFill=0;" edge="1" parent="1" source="LFjVtD7tM92_0hhKICRg-212" target="LFjVtD7tM92_0hhKICRg-211">
          <mxGeometry x="0.1111" relative="1" as="geometry">
            <mxPoint x="2090" y="861" as="sourcePoint" />
            <mxPoint x="1890" y="810" as="targetPoint" />
            <mxPoint as="offset" />
          </mxGeometry>
        </mxCell>
        <mxCell id="LFjVtD7tM92_0hhKICRg-231" value="0::e" style="shape=offPageConnector;whiteSpace=wrap;html=1;" vertex="1" parent="1">
          <mxGeometry x="1590" y="690" width="20" height="20" as="geometry" />
        </mxCell>
        <mxCell id="LFjVtD7tM92_0hhKICRg-232" value="" style="rounded=0;whiteSpace=wrap;html=1;fillColor=none;strokeColor=#999999;strokeWidth=3;" vertex="1" parent="1">
          <mxGeometry x="1785" y="720" width="135" height="100" as="geometry" />
        </mxCell>
        <mxCell id="LFjVtD7tM92_0hhKICRg-233" value="&lt;font style=&quot;font-size: 14px;&quot;&gt;&lt;b&gt;Failure Scenario:&amp;nbsp; Mechanical conveyor stuck&lt;/b&gt;&lt;/font&gt;" style="text;html=1;align=center;verticalAlign=middle;whiteSpace=wrap;rounded=0;fontColor=#999999;" vertex="1" parent="1">
          <mxGeometry x="1895" y="670" width="185" height="45" as="geometry" />
        </mxCell>
        <mxCell id="LFjVtD7tM92_0hhKICRg-234" value="&lt;font color=&quot;#ff1100&quot;&gt;&lt;span style=&quot;font-size: 14px;&quot;&gt;&lt;b&gt;Power supply to cut to conveyor&lt;/b&gt;&lt;/span&gt;&lt;/font&gt;" style="text;html=1;align=center;verticalAlign=middle;whiteSpace=wrap;rounded=0;" vertex="1" parent="1">
          <mxGeometry x="1850" y="590" width="210" height="45" as="geometry" />
        </mxCell>
        <mxCell id="LFjVtD7tM92_0hhKICRg-235" value="" style="endArrow=classic;html=1;rounded=0;strokeWidth=3;strokeColor=#FF1100;" edge="1" parent="1" source="LFjVtD7tM92_0hhKICRg-236">
          <mxGeometry width="50" height="50" relative="1" as="geometry">
            <mxPoint x="1730" y="960" as="sourcePoint" />
            <mxPoint x="1769.75" y="940" as="targetPoint" />
          </mxGeometry>
        </mxCell>
        <mxCell id="LFjVtD7tM92_0hhKICRg-236" value="&lt;font color=&quot;#ff1100&quot; style=&quot;font-size: 14px;&quot;&gt;&lt;b&gt;Dough jamming conveyor&lt;/b&gt;&lt;/font&gt;" style="text;html=1;align=center;verticalAlign=middle;whiteSpace=wrap;rounded=0;" vertex="1" parent="1">
          <mxGeometry x="1550" y="920" width="160" height="45" as="geometry" />
        </mxCell>
        <mxCell id="LFjVtD7tM92_0hhKICRg-237" value="&lt;font color=&quot;#ff1100&quot; style=&quot;font-size: 14px;&quot;&gt;&lt;b&gt;Bread blocking conveyor&lt;/b&gt;&lt;/font&gt;" style="text;html=1;align=center;verticalAlign=middle;whiteSpace=wrap;rounded=0;" vertex="1" parent="1">
          <mxGeometry x="2032.5" y="910" width="160" height="45" as="geometry" />
        </mxCell>
        <mxCell id="LFjVtD7tM92_0hhKICRg-238" value="" style="endArrow=classic;html=1;rounded=0;strokeWidth=3;strokeColor=#FF1100;" edge="1" parent="1" target="LFjVtD7tM92_0hhKICRg-211">
          <mxGeometry width="50" height="50" relative="1" as="geometry">
            <mxPoint x="2040" y="930" as="sourcePoint" />
            <mxPoint x="1950" y="1030" as="targetPoint" />
          </mxGeometry>
        </mxCell>
        <mxCell id="LFjVtD7tM92_0hhKICRg-239" value="" style="endArrow=classic;html=1;rounded=0;strokeWidth=3;strokeColor=#999999;" edge="1" parent="1">
          <mxGeometry width="50" height="50" relative="1" as="geometry">
            <mxPoint x="2661.25" y="610" as="sourcePoint" />
            <mxPoint x="2618.75" y="610" as="targetPoint" />
          </mxGeometry>
        </mxCell>
        <mxCell id="LFjVtD7tM92_0hhKICRg-240" value="Import EE&lt;div&gt;&amp;lt;Physical&amp;gt;&lt;/div&gt;" style="rounded=0;whiteSpace=wrap;html=1;" vertex="1" parent="1">
          <mxGeometry x="2401.25" y="680" width="120" height="60" as="geometry" />
        </mxCell>
        <mxCell id="LFjVtD7tM92_0hhKICRg-241" value="Import Dough&lt;div&gt;&amp;lt;Human&amp;gt;&lt;/div&gt;" style="rounded=0;whiteSpace=wrap;html=1;" vertex="1" parent="1">
          <mxGeometry x="2401.25" y="790" width="120" height="60" as="geometry" />
        </mxCell>
        <mxCell id="LFjVtD7tM92_0hhKICRg-242" value="Bake Bread from Dough&lt;div&gt;&amp;lt;Physical, Control&amp;gt;&lt;/div&gt;" style="rounded=0;whiteSpace=wrap;html=1;" vertex="1" parent="1">
          <mxGeometry x="2601.25" y="720" width="120" height="80" as="geometry" />
        </mxCell>
        <mxCell id="LFjVtD7tM92_0hhKICRg-243" value="EE_1&lt;div&gt;&amp;lt;Power&amp;gt;&lt;/div&gt;" style="ellipse;whiteSpace=wrap;html=1;aspect=fixed;" vertex="1" parent="1">
          <mxGeometry x="2541.25" y="590" width="70" height="70" as="geometry" />
        </mxCell>
        <mxCell id="LFjVtD7tM92_0hhKICRg-244" value="Dough Input&lt;div&gt;&amp;lt;Dough&amp;gt;&lt;/div&gt;" style="ellipse;whiteSpace=wrap;html=1;aspect=fixed;" vertex="1" parent="1">
          <mxGeometry x="2561.25" y="850" width="80" height="80" as="geometry" />
        </mxCell>
        <mxCell id="LFjVtD7tM92_0hhKICRg-245" value="Bread Output&lt;div&gt;&amp;lt;Bread&amp;gt;&lt;/div&gt;" style="ellipse;whiteSpace=wrap;html=1;aspect=fixed;" vertex="1" parent="1">
          <mxGeometry x="2721.25" y="850" width="80" height="80" as="geometry" />
        </mxCell>
        <mxCell id="LFjVtD7tM92_0hhKICRg-246" value="Export Bread&lt;div&gt;&amp;lt;Human&amp;gt;&lt;/div&gt;" style="rounded=0;whiteSpace=wrap;html=1;" vertex="1" parent="1">
          <mxGeometry x="2811.25" y="730" width="120" height="60" as="geometry" />
        </mxCell>
        <mxCell id="LFjVtD7tM92_0hhKICRg-247" value="&lt;b&gt;EV&lt;/b&gt;" style="rounded=0;whiteSpace=wrap;html=1;" vertex="1" parent="1">
          <mxGeometry x="2491.25" y="830" width="30" height="20" as="geometry" />
        </mxCell>
        <mxCell id="LFjVtD7tM92_0hhKICRg-248" value="&lt;b&gt;EV&lt;/b&gt;" style="rounded=0;whiteSpace=wrap;html=1;" vertex="1" parent="1">
          <mxGeometry x="2901.25" y="770" width="30" height="20" as="geometry" />
        </mxCell>
        <mxCell id="LFjVtD7tM92_0hhKICRg-249" value="&lt;b&gt;ED&lt;/b&gt;" style="rounded=0;whiteSpace=wrap;html=1;" vertex="1" parent="1">
          <mxGeometry x="2501.25" y="720" width="20" height="20" as="geometry" />
        </mxCell>
        <mxCell id="LFjVtD7tM92_0hhKICRg-250" value="&lt;b&gt;IR&lt;/b&gt;" style="rounded=0;whiteSpace=wrap;html=1;" vertex="1" parent="1">
          <mxGeometry x="2701.25" y="780" width="20" height="20" as="geometry" />
        </mxCell>
        <mxCell id="LFjVtD7tM92_0hhKICRg-251" value="i::100" style="shape=offPageConnector;whiteSpace=wrap;html=1;" vertex="1" parent="1">
          <mxGeometry x="2811.25" y="730" width="40" height="20" as="geometry" />
        </mxCell>
        <mxCell id="LFjVtD7tM92_0hhKICRg-252" style="edgeStyle=orthogonalEdgeStyle;rounded=0;orthogonalLoop=1;jettySize=auto;html=1;exitX=0;exitY=0;exitDx=0;exitDy=0;entryX=1;entryY=0;entryDx=0;entryDy=0;endArrow=ERoneToMany;endFill=0;" edge="1" parent="1" target="LFjVtD7tM92_0hhKICRg-251">
          <mxGeometry relative="1" as="geometry">
            <mxPoint x="2846.25" y="730" as="targetPoint" />
            <Array as="points" />
            <mxPoint x="2831.25" y="730" as="sourcePoint" />
          </mxGeometry>
        </mxCell>
        <mxCell id="LFjVtD7tM92_0hhKICRg-253" value="" style="group" vertex="1" connectable="0" parent="1">
          <mxGeometry x="2601.25" y="730" width="50" height="20" as="geometry" />
        </mxCell>
        <mxCell id="LFjVtD7tM92_0hhKICRg-254" value="i:dt:e" style="shape=offPageConnector;whiteSpace=wrap;html=1;" vertex="1" parent="LFjVtD7tM92_0hhKICRg-253">
          <mxGeometry y="-10" width="30" height="20" as="geometry" />
        </mxCell>
        <mxCell id="LFjVtD7tM92_0hhKICRg-255" value="&lt;b&gt;CA&lt;/b&gt;" style="shape=offPageConnector;whiteSpace=wrap;html=1;direction=north;size=0.25;" vertex="1" parent="1">
          <mxGeometry x="2601.25" y="780" width="30" height="20" as="geometry" />
        </mxCell>
        <mxCell id="LFjVtD7tM92_0hhKICRg-256" value="" style="group" vertex="1" connectable="0" parent="1">
          <mxGeometry x="2401.25" y="790" width="40" height="20" as="geometry" />
        </mxCell>
        <mxCell id="LFjVtD7tM92_0hhKICRg-257" value="s::e" style="shape=offPageConnector;whiteSpace=wrap;html=1;" vertex="1" parent="LFjVtD7tM92_0hhKICRg-256">
          <mxGeometry width="20" height="20" as="geometry" />
        </mxCell>
        <mxCell id="LFjVtD7tM92_0hhKICRg-258" style="edgeStyle=orthogonalEdgeStyle;rounded=0;orthogonalLoop=1;jettySize=auto;html=1;exitX=0;exitY=0;exitDx=0;exitDy=0;entryX=0.75;entryY=0;entryDx=0;entryDy=0;startArrow=baseDash;startFill=0;" edge="1" parent="LFjVtD7tM92_0hhKICRg-256">
          <mxGeometry relative="1" as="geometry">
            <mxPoint x="22.5" as="targetPoint" />
            <Array as="points" />
            <mxPoint as="sourcePoint" />
          </mxGeometry>
        </mxCell>
        <mxCell id="LFjVtD7tM92_0hhKICRg-259" value="new voltage" style="edgeStyle=orthogonalEdgeStyle;rounded=0;orthogonalLoop=1;jettySize=auto;html=1;exitX=0.5;exitY=0;exitDx=0;exitDy=0;entryX=0;entryY=0.5;entryDx=0;entryDy=0;startArrow=none;startFill=0;" edge="1" parent="1" source="LFjVtD7tM92_0hhKICRg-240" target="LFjVtD7tM92_0hhKICRg-243">
          <mxGeometry x="-0.0667" relative="1" as="geometry">
            <mxPoint x="2381.25" y="507.5" as="sourcePoint" />
            <mxPoint x="2351.25" y="587.5" as="targetPoint" />
            <mxPoint as="offset" />
          </mxGeometry>
        </mxCell>
        <mxCell id="LFjVtD7tM92_0hhKICRg-260" value="new current (r)" style="edgeStyle=orthogonalEdgeStyle;rounded=0;orthogonalLoop=1;jettySize=auto;html=1;exitX=0.5;exitY=0;exitDx=0;exitDy=0;startArrow=classic;startFill=1;entryX=1;entryY=0.5;entryDx=0;entryDy=0;endArrow=none;endFill=0;" edge="1" parent="1" source="LFjVtD7tM92_0hhKICRg-242" target="LFjVtD7tM92_0hhKICRg-243">
          <mxGeometry relative="1" as="geometry">
            <mxPoint x="2801.25" y="512.5" as="sourcePoint" />
            <mxPoint x="2731.25" y="642.5" as="targetPoint" />
          </mxGeometry>
        </mxCell>
        <mxCell id="LFjVtD7tM92_0hhKICRg-261" value="dough put in" style="edgeStyle=orthogonalEdgeStyle;rounded=0;orthogonalLoop=1;jettySize=auto;html=1;exitX=0.5;exitY=1;exitDx=0;exitDy=0;entryX=0;entryY=0.5;entryDx=0;entryDy=0;startArrow=none;startFill=0;" edge="1" parent="1" source="LFjVtD7tM92_0hhKICRg-241" target="LFjVtD7tM92_0hhKICRg-244">
          <mxGeometry x="-0.1667" relative="1" as="geometry">
            <mxPoint x="2466" y="990" as="sourcePoint" />
            <mxPoint x="2536" y="930" as="targetPoint" />
            <mxPoint as="offset" />
          </mxGeometry>
        </mxCell>
        <mxCell id="LFjVtD7tM92_0hhKICRg-262" value="&lt;span style=&quot;border: 0px; margin: 0px; padding: 0px; outline: 0px; vertical-align: baseline; background-image: initial; background-position: 0px 0px; background-size: initial; background-repeat: initial; background-attachment: initial; background-origin: initial; background-clip: initial; text-align: justify;&quot;&gt;ready for dough (r)&lt;/span&gt;" style="edgeStyle=orthogonalEdgeStyle;rounded=0;orthogonalLoop=1;jettySize=auto;html=1;exitX=0.5;exitY=0;exitDx=0;exitDy=0;entryX=0;entryY=1;entryDx=0;entryDy=0;startArrow=none;startFill=0;" edge="1" parent="1" source="LFjVtD7tM92_0hhKICRg-244" target="LFjVtD7tM92_0hhKICRg-255">
          <mxGeometry x="-0.1111" relative="1" as="geometry">
            <mxPoint x="2471.25" y="860" as="sourcePoint" />
            <mxPoint x="2561.25" y="890" as="targetPoint" />
            <mxPoint as="offset" />
          </mxGeometry>
        </mxCell>
        <mxCell id="LFjVtD7tM92_0hhKICRg-263" value="&lt;span style=&quot;border: 0px; margin: 0px; padding: 0px; outline: 0px; vertical-align: baseline; background-image: initial; background-position: 0px 0px; background-size: initial; background-repeat: initial; background-attachment: initial; background-origin: initial; background-clip: initial; text-align: justify;&quot;&gt;bread ready&lt;br&gt;&lt;/span&gt;" style="edgeStyle=orthogonalEdgeStyle;rounded=0;orthogonalLoop=1;jettySize=auto;html=1;exitX=0.5;exitY=0;exitDx=0;exitDy=0;entryX=0.25;entryY=1;entryDx=0;entryDy=0;startArrow=classic;startFill=1;endArrow=none;endFill=0;" edge="1" parent="1" source="LFjVtD7tM92_0hhKICRg-245" target="LFjVtD7tM92_0hhKICRg-250">
          <mxGeometry x="0.1136" relative="1" as="geometry">
            <mxPoint x="2646" y="880" as="sourcePoint" />
            <mxPoint x="2676" y="820" as="targetPoint" />
            <mxPoint as="offset" />
          </mxGeometry>
        </mxCell>
        <mxCell id="LFjVtD7tM92_0hhKICRg-264" value="&lt;span style=&quot;border: 0px; margin: 0px; padding: 0px; outline: 0px; vertical-align: baseline; background-image: initial; background-position: 0px 0px; background-size: initial; background-repeat: initial; background-attachment: initial; background-origin: initial; background-clip: initial; text-align: justify;&quot;&gt;bread&lt;br&gt;removed (r)&lt;br&gt;&lt;/span&gt;" style="edgeStyle=orthogonalEdgeStyle;rounded=0;orthogonalLoop=1;jettySize=auto;html=1;entryX=1;entryY=0.5;entryDx=0;entryDy=0;startArrow=classic;startFill=1;exitX=0.5;exitY=1;exitDx=0;exitDy=0;endArrow=none;endFill=0;" edge="1" parent="1" source="LFjVtD7tM92_0hhKICRg-246" target="LFjVtD7tM92_0hhKICRg-245">
          <mxGeometry x="0.1111" relative="1" as="geometry">
            <mxPoint x="2901.25" y="851" as="sourcePoint" />
            <mxPoint x="2701.25" y="800" as="targetPoint" />
            <mxPoint as="offset" />
          </mxGeometry>
        </mxCell>
        <mxCell id="LFjVtD7tM92_0hhKICRg-265" value="0::e" style="shape=offPageConnector;whiteSpace=wrap;html=1;" vertex="1" parent="1">
          <mxGeometry x="2401.25" y="680" width="20" height="20" as="geometry" />
        </mxCell>
        <mxCell id="LFjVtD7tM92_0hhKICRg-266" value="" style="rounded=0;whiteSpace=wrap;html=1;fillColor=none;strokeColor=#999999;strokeWidth=3;" vertex="1" parent="1">
          <mxGeometry x="2596.25" y="710" width="135" height="100" as="geometry" />
        </mxCell>
        <mxCell id="LFjVtD7tM92_0hhKICRg-267" value="&lt;font style=&quot;font-size: 14px;&quot;&gt;&lt;b&gt;Failure Scenario:&amp;nbsp; Mechanical conveyor stuck&lt;/b&gt;&lt;/font&gt;" style="text;html=1;align=center;verticalAlign=middle;whiteSpace=wrap;rounded=0;fontColor=#999999;" vertex="1" parent="1">
          <mxGeometry x="2706.25" y="660" width="185" height="45" as="geometry" />
        </mxCell>
        <mxCell id="LFjVtD7tM92_0hhKICRg-268" value="&lt;font&gt;&lt;span style=&quot;font-size: 14px;&quot;&gt;&lt;b&gt;Power supply to cut to conveyor&lt;/b&gt;&lt;/span&gt;&lt;/font&gt;" style="text;html=1;align=center;verticalAlign=middle;whiteSpace=wrap;rounded=0;fontColor=#999999;" vertex="1" parent="1">
          <mxGeometry x="2661.25" y="580" width="210" height="45" as="geometry" />
        </mxCell>
        <mxCell id="LFjVtD7tM92_0hhKICRg-269" value="" style="endArrow=classic;html=1;rounded=0;strokeWidth=3;strokeColor=#999999;" edge="1" parent="1" source="LFjVtD7tM92_0hhKICRg-270">
          <mxGeometry width="50" height="50" relative="1" as="geometry">
            <mxPoint x="2541.25" y="950" as="sourcePoint" />
            <mxPoint x="2581" y="930" as="targetPoint" />
          </mxGeometry>
        </mxCell>
        <mxCell id="LFjVtD7tM92_0hhKICRg-270" value="&lt;font style=&quot;font-size: 14px;&quot;&gt;&lt;b&gt;Dough jamming conveyor&lt;/b&gt;&lt;/font&gt;" style="text;html=1;align=center;verticalAlign=middle;whiteSpace=wrap;rounded=0;fontColor=#999999;" vertex="1" parent="1">
          <mxGeometry x="2361.25" y="910" width="160" height="45" as="geometry" />
        </mxCell>
        <mxCell id="LFjVtD7tM92_0hhKICRg-271" value="&lt;font style=&quot;font-size: 14px;&quot;&gt;&lt;b&gt;Bread blocking conveyor&lt;/b&gt;&lt;/font&gt;" style="text;html=1;align=center;verticalAlign=middle;whiteSpace=wrap;rounded=0;fontColor=#999999;" vertex="1" parent="1">
          <mxGeometry x="2843.75" y="900" width="160" height="45" as="geometry" />
        </mxCell>
        <mxCell id="LFjVtD7tM92_0hhKICRg-272" value="" style="endArrow=classic;html=1;rounded=0;strokeWidth=3;strokeColor=#999999;" edge="1" parent="1" target="LFjVtD7tM92_0hhKICRg-245">
          <mxGeometry width="50" height="50" relative="1" as="geometry">
            <mxPoint x="2851.25" y="920" as="sourcePoint" />
            <mxPoint x="2761.25" y="1020" as="targetPoint" />
          </mxGeometry>
        </mxCell>
        <mxCell id="LFjVtD7tM92_0hhKICRg-273" value="" style="rounded=0;whiteSpace=wrap;html=1;fillColor=none;strokeColor=#FF1100;strokeWidth=3;" vertex="1" parent="1">
          <mxGeometry x="2392.5" y="670" width="135" height="80" as="geometry" />
        </mxCell>
        <mxCell id="LFjVtD7tM92_0hhKICRg-274" value="" style="rounded=0;whiteSpace=wrap;html=1;fillColor=none;strokeColor=#FF1100;strokeWidth=3;" vertex="1" parent="1">
          <mxGeometry x="2393.75" y="780" width="135" height="80" as="geometry" />
        </mxCell>
        <mxCell id="LFjVtD7tM92_0hhKICRg-275" value="" style="rounded=0;whiteSpace=wrap;html=1;fillColor=none;strokeColor=#FF1100;strokeWidth=3;" vertex="1" parent="1">
          <mxGeometry x="2801.25" y="720" width="135" height="80" as="geometry" />
        </mxCell>
        <mxCell id="LFjVtD7tM92_0hhKICRg-276" value="&lt;font color=&quot;#ff1100&quot;&gt;&lt;span style=&quot;font-size: 14px;&quot;&gt;&lt;b&gt;Bread piled up, causing backup on conveyor&lt;/b&gt;&lt;/span&gt;&lt;/font&gt;" style="text;html=1;align=center;verticalAlign=middle;whiteSpace=wrap;rounded=0;" vertex="1" parent="1">
          <mxGeometry x="2950" y="730" width="100" height="45" as="geometry" />
        </mxCell>
        <mxCell id="LFjVtD7tM92_0hhKICRg-277" value="&lt;font color=&quot;#ff1100&quot;&gt;&lt;span style=&quot;font-size: 14px;&quot;&gt;&lt;b&gt;Incorrect dough consistency&lt;/b&gt;&lt;/span&gt;&lt;/font&gt;" style="text;html=1;align=center;verticalAlign=middle;whiteSpace=wrap;rounded=0;" vertex="1" parent="1">
          <mxGeometry x="2270" y="787.5" width="110" height="45" as="geometry" />
        </mxCell>
        <mxCell id="LFjVtD7tM92_0hhKICRg-278" value="&lt;font color=&quot;#ff1100&quot;&gt;&lt;span style=&quot;font-size: 14px;&quot;&gt;&lt;b&gt;Power cut to conveyor power line&lt;/b&gt;&lt;/span&gt;&lt;/font&gt;" style="text;html=1;align=center;verticalAlign=middle;whiteSpace=wrap;rounded=0;" vertex="1" parent="1">
          <mxGeometry x="2270" y="687.5" width="110" height="45" as="geometry" />
        </mxCell>
      </root>
    </mxGraphModel>
  </diagram>
</mxfile>
